<svg xmlns="http://www.w3.org/2000/svg" xmlns:xlink="http://www.w3.org/1999/xlink" width="40" height="40" viewBox="0 0 40 40"><defs><style>.a{fill:none;}.b{fill:#f6c716;}.c{clip-path:url(#a);}.d{clip-path:url(#b);}.e{fill:#f2edce;}.f{fill:#f0e995;}.g{fill:#d1d3d4;}.h{fill:#f1f2f2;}.i{fill:#6d6e71;}.j{fill:#b47f00;}.k{fill:#ffeacf;}.l{fill:#e6e7e8;}.m{opacity:0.46;fill:url(#c);}.n{clip-path:url(#d);}.o{opacity:0.48;}.p{fill:url(#e);}.q{opacity:0.68;fill:url(#f);}.r,.s{fill:#c1722c;}.s{opacity:0.65;}.t{fill:url(#g);}.u{fill:#221f1f;}</style><clipPath id="a"><path class="a" d="M1079.51,3286.539v3.455a9.018,9.018,0,0,0,9.045,8.992l21.866,0a9.019,9.019,0,0,0,9.045-8.991v-3.456" transform="translate(-1079.51 -3286.535)"/></clipPath><clipPath id="b"><path class="a" d="M1090.447,3215.147l-42.733,26.8-42.474-26.44,42.843-15.558Z" transform="translate(-1005.24 -3199.947)"/></clipPath><radialGradient id="c" cx="0.49" cy="0.478" r="1.864" gradientTransform="matrix(0.18, -0.03, 0.001, 0.16, 0.374, 25.964)" gradientUnits="objectBoundingBox"><stop offset="0"/><stop offset="1" stop-opacity="0"/></radialGradient><clipPath id="d"><path class="a" d="M1079.51,3286.535v3.459a9.018,9.018,0,0,0,9.045,8.992l21.866,0a9.019,9.019,0,0,0,9.045-8.991v-3.456" transform="translate(-1079.51 -3286.535)"/></clipPath><linearGradient id="e" x1="0.5" y1="0.217" x2="0.5" y2="1.47" gradientUnits="objectBoundingBox"><stop offset="0" stop-color="#f4831f" stop-opacity="0"/><stop offset="1" stop-color="#f4831f"/></linearGradient><linearGradient id="f" x1="0.511" y1="0.74" x2="0.519" y2="1.269" gradientUnits="objectBoundingBox"><stop offset="0" stop-opacity="0"/><stop offset="1"/></linearGradient><radialGradient id="g" cx="0.5" cy="0.5" r="0.418" gradientTransform="translate(-0.294) scale(1.587 1)" gradientUnits="objectBoundingBox"><stop offset="0" stop-color="#414141"/><stop offset="1" stop-color="#221f1f"/></radialGradient></defs><path class="b" d="M1079.51,3134.5a8.991,8.991,0,0,0,9.045,8.937l21.866,0a8.992,8.992,0,0,0,9.045-8.937v-21.836a8.992,8.992,0,0,0-9.045-8.938l-21.866,0a8.992,8.992,0,0,0-9.045,8.938Z" transform="translate(-1079.504 -3103.726)"/><g transform="translate(0.006 27.265)"><g class="c"><g transform="translate(-11.175 -13.028)"><g class="d"><g transform="translate(-1.913 -0.499)"><path class="e" d="M1082.139,3212.3l-45.217,28.966-44.4-28.229,45.389-16.405Z" transform="translate(-992.527 -3196.633)"/><path class="f" d="M1198.749,3280.865l-20.454,13.1-32.588-17.983,20.767-8.816Z" transform="translate(-1122.66 -3256.553)"/><path class="g" d="M1353.8,3240.826l-8.323,5.33-32.067-12.868,8.877-3.769Z" transform="translate(-1265.127 -3224.571)"/><g transform="translate(5.125 1.847)"><path class="h" d="M1075.88,3210.013l-2.649-.935-34.559,13.4-5.395-2.95-3.6,1.3,5.344,3.064-7.827,3.035,2.511,1.6,7.882-3.16,2.288,1.312-7.928,3.274,2.714,1.726,7.979-3.414,31.944,18.318,3.757-2.406-31.995-17.5,9.778-4.184,6.547,3.163-3.361,1.562c-.942.438-1.011,1.158-.135,1.609a4.215,4.215,0,0,0,3.327,0l4.975-2.406c.876-.424.853-1.1-.034-1.512l-8.136-3.776,6.507-2.785L1097.5,3231.9l1.882-1.206-31.605-13.188,13.254-5.671-2.811-.993-34.66,14.313-2.3-1.26Z" transform="translate(-1027.104 -3209.052)"/><path class="i" d="M1098.965,3230.547l-1.958,1.256-31.707-13.569-6.423,2.75,8.1,3.755c.91.422.935,1.12.036,1.555l-4.975,2.408a4.339,4.339,0,0,1-3.421,0c-.9-.463-.827-1.2.14-1.654l3.315-1.54-6.462-3.124-9.682,4.145,32.015,17.5-3.862,2.476-31.964-18.343-7.984,3.418-2.791-1.776,7.932-3.274-2.212-1.27-7.888,3.164-2.581-1.642,7.831-3.035-5.34-3.064,3.7-1.337,5.392,2.947,34.541-13.387,2.723.961-34.6,13.879,2.23,1.219,34.641-14.3,2.89,1.02-13.247,5.671Zm-2,1.156,1.806-1.156-31.589-13.188,13.26-5.671-2.732-.965-34.678,14.327-2.38-1.3,34.637-13.879-2.574-.909-34.577,13.413-5.4-2.954-3.5,1.265,5.348,3.064-7.823,3.035,2.44,1.551,7.877-3.156,2.363,1.354-7.924,3.274,2.639,1.677,7.973-3.41,31.924,18.295,3.651-2.337-31.974-17.5,9.875-4.223,6.631,3.2-3.407,1.584c-.914.425-.98,1.126-.13,1.563a4.1,4.1,0,0,0,3.232,0l4.975-2.405c.85-.411.828-1.07-.032-1.47l-8.176-3.8,6.592-2.819Z" transform="translate(-1026.588 -3208.906)"/></g><g transform="translate(37.696 1.939)"><path class="j" d="M1290.521,3226.712l-1.985,1.272-44.757-17.444,2.115-.764Z" transform="translate(-1243.672 -3209.737)"/><path class="k" d="M1290.054,3226.492l-2.087,1.339-44.9-17.51,2.224-.8Zm-2.155,1.2,1.883-1.2-44.494-16.9-2.005.726Z" transform="translate(-1243.069 -3209.517)"/></g><g transform="translate(41.206 0.704)"><path class="j" d="M1313.5,3217.7l-1.879,1.2-44.534-16.608,2.027-.733Z" transform="translate(-1266.983 -3201.526)"/><path class="k" d="M1313.042,3217.489l-1.976,1.267-44.674-16.671,2.132-.77Zm-2.047,1.141,1.782-1.141-44.254-16.1-1.922.7Z" transform="translate(-1266.393 -3201.315)"/></g><path class="g" d="M1100.243,3252.991l-11.635,4.462-3.313-1.779,11.564-4.249Z" transform="translate(-1071.338 -3243.181)"/><path class="l" d="M1184.054,3241.737l-4.235,1.625-2.417-1.1,4.225-1.572Z" transform="translate(-1149.586 -3234.062)"/></g></g></g></g></g><path class="m" d="M0,2.7Z" transform="translate(14.887 30.099)"/><g transform="translate(0.006 27.265)"><g class="n"><path class="o" d="M1111.739,3178.673v-20.857c0,2.1-2.051,3.827-4.557,3.827H1073.5c-2.506,0-4.557-1.722-4.557-3.827v20.857A114.352,114.352,0,0,1,1111.739,3178.673Z" transform="translate(-1070.535 -3177.183)"/></g></g><rect class="p" width="39.955" height="17.465" transform="translate(0.006 9.911)"/><path class="q" d="M1110.421,3307.9l-21.866,0a9.018,9.018,0,0,1-9.045-8.991v1.878a9.018,9.018,0,0,0,9.045,8.991l21.866,0a9.019,9.019,0,0,0,9.045-8.991v-1.879A9.019,9.019,0,0,1,1110.421,3307.9Z" transform="translate(-1079.504 -3269.783)"/><path class="a" d="M1079.51,3134.5a8.991,8.991,0,0,0,9.045,8.937l21.866,0a8.992,8.992,0,0,0,9.045-8.937v-21.836a8.992,8.992,0,0,0-9.045-8.938l-21.866,0a8.992,8.992,0,0,0-9.045,8.938Z" transform="translate(-1079.504 -3103.726)"/><path class="r" d="M1144,3125.605l.037,4.33h-1.776v5.78l-1.175-.863.037,1.591h-.344v-1.448h-1.574v-5h-.315v-5.6h-.393v-5.748h-.262v-1.67h-.927l-.2-2.679h-.077l-.135,2.679h-.916v1.67h-.262v5.748h-.393v5.6h-.315v5.912h-.862v.531H1134v-4.368h-.509v-8.347h-.583v-.955h.294v-.478h-1.064v-2.1h-.133v2.1h-1.064v.478h.295v.955h-.584v8.347h-.508v6.126h-1.612v2.021h17.818v-12.267Zm-12.365-1.495.436-.436.436.436v1.421h-.872Zm0,4.775.436-.436.436.436v3.017h-.872Zm-1.173,9.315v-.474h.566v.474Zm.884,0v-.474h.566v.474Zm.884,0v-.474h.566v.474Zm.884,0v-.474h.566v.474Z" transform="translate(-1121.152 -3112.712)"/><path class="s" d="M1294.467,3207.721l.018,2.138h-.877v2.855l-.58-.427.018.786h-.17v-.715h-.777v-2.467h-.156v-2.766h-.195v-2.839h-.129v-.825h-.458l-.1-1.323h-.038l-.067,1.323h-.452v.825h-.13v2.839h-.194v2.766h-.155v2.92h-.426v.262h-.072v-2.157h-.251v-4.123h-.288v-.472h.146v-.236h-.526v-1.035h-.065v1.035h-.525v.236h.146v.472h-.288v4.123h-.251v3.026h-.8v1h8.8v-6.059Zm-6.108-.738.215-.216.216.216v.7h-.431Zm0,2.358.215-.215.216.215v1.49h-.431Zm-.579,4.6v-.234h.279v.234Zm.437,0v-.234h.28v.234Zm.437,0v-.234h.28v.234Zm.437,0v-.234h.28v.234Z" transform="translate(-1255.627 -3187.462)"/><g transform="translate(19.514 2.398)"><circle class="b" cx="8.561" cy="8.561" r="8.561" transform="translate(1.092 1.092)"/><path class="t" d="M1218.812,3119.664a9.652,9.652,0,0,0-9.651,9.651c0,5.334,9.651,20.991,9.651,20.991s9.655-15.657,9.655-20.991A9.655,9.655,0,0,0,1218.812,3119.664Zm0,17.121a7.468,7.468,0,1,1,7.47-7.47A7.475,7.475,0,0,1,1218.812,3136.785Z" transform="translate(-1209.161 -3119.664)"/><path class="u" d="M1256.258,3158.44h-.209a.545.545,0,0,0-.542.546v4.454l-4.715-4.846a.544.544,0,0,0-.389-.165h-.159a.548.548,0,0,0-.546.543v6.06a.546.546,0,0,0,.546.544h.2a.547.547,0,0,0,.553-.544v-4.38l4.625,4.759a.539.539,0,0,0,.391.165h.241a.546.546,0,0,0,.547-.544v-6.046A.546.546,0,0,0,1256.258,3158.44Z" transform="translate(-1243.598 -3152.597)"/></g><rect class="r" width="8.761" height="0.44" transform="translate(0.006 26.905)"/><path class="r" d="M1178.557,3252.09l-1.116-1.1v.436l.672.66h-.672v.4h1.551v-.4Z" transform="translate(-1162.7 -3228.974)"/><path class="r" d="M1096.71,3194.867H1094l-.074-.068v.43h-4.959v-.362h-1.741l-2.5-6.038v-.434l4.242,6.3v-.579l-4.242-6.3v-.312l4.242,4.751v-.486l-4.242-4.75v-.267l4.242,3.913v-.44l-4.242-3.913v-.816l4.242,3.6v-.424l-4.242-3.6v-.5l4.242,3.173v-.4l-4.242-3.173v-.278h.258v-.424h-.442v-.046h.017a.175.175,0,0,0,.157-.252l-.345-.7a.175.175,0,0,0-.314,0l-.345.7a.175.175,0,0,0,.153.252v.046h-.429v.424h.214v.389l-4.185,5.04v.506l4.185-5.04v.406l-4.185,5.523v.535l4.185-5.523v.666l-4.185,5.8v.552l4.185-5.8v.123l-4.185,6.648v.607l4.185-6.648v.132l-3.7,7.058h-.48v.512h3.181l-.461,2.26h1.2l.461-2.26h.675l.46,2.26h1.205l-.461-2.26h10.977Zm-13.058-4.414-.9,4.414H1081.5l2.153-5.163Zm0-1.588-2.5,6h-.836l3.34-6.363Zm.3,6,.233-1.145.234,1.145Zm1.671,0-.9-4.414v-.779l2.15,5.193Z" transform="translate(-1079.467 -3170.65)"/></svg>