<svg id="btn_google" xmlns="http://www.w3.org/2000/svg" width="24" height="24" viewBox="0 0 24 24">
  <rect id="Rectangle_2525" data-name="Rectangle 2525" width="24" height="24" fill="none"/>
  <g id="Group_1785" data-name="Group 1785" transform="translate(-453.916 -1377.32)">
    <path id="Path_2650" data-name="Path 2650" d="M698.586,1570.647a9.041,9.041,0,0,0-.223-2.156h-9.9v3.914h5.812a5.153,5.153,0,0,1-2.156,3.422l-.02.131,3.131,2.425.217.022a10.311,10.311,0,0,0,3.141-7.757" transform="translate(-222 -181.547)" fill="#4285f4"/>
    <path id="Path_2651" data-name="Path 2651" d="M490.142,1665.319a10.052,10.052,0,0,0,6.984-2.554l-3.328-2.578a6.242,6.242,0,0,1-3.656,1.055,6.349,6.349,0,0,1-6-4.382l-.124.01-3.255,2.519-.043.118a10.539,10.539,0,0,0,9.421,5.812" transform="translate(-23.68 -265.907)" fill="#34a853"/>
    <path id="Path_2652" data-name="Path 2652" d="M460.463,1512.218a6.492,6.492,0,0,1-.352-2.086,6.822,6.822,0,0,1,.34-2.086l-.006-.14-3.3-2.56-.108.051a10.524,10.524,0,0,0,0,9.468l3.422-2.648" transform="translate(0 -121.266)" fill="#fbbc05"/>
    <path id="Path_2653" data-name="Path 2653" d="M490.142,1382.4a5.845,5.845,0,0,1,4.078,1.57l2.976-2.906a10.133,10.133,0,0,0-7.054-2.742,10.538,10.538,0,0,0-9.421,5.812l3.41,2.648a6.375,6.375,0,0,1,6.011-4.383" transform="translate(-23.68)" fill="#eb4335"/>
  </g>
</svg>
