<svg xmlns="http://www.w3.org/2000/svg" width="40" height="40" viewBox="0 0 40 40"><defs><style>.a{fill:#fff;}.b{fill:#ffda2d;}.c{fill:#80aef8;}.d{fill:#4086f4;}.e{fill:#59c36a;}.f{fill:#00a66c;}.g{fill:#fdbf00;}.h{fill:#4175df;}.i{fill:#f03800;}</style></defs><rect class="a" width="40" height="40" rx="9"/><g transform="translate(-65 7.333)"><g transform="translate(76.494 8.409)"><path class="b" d="M95.213,168.9l-2.827,4.369-2.7,1.154a18.166,18.166,0,0,1-4.089-6.712l1.615-3,2.6-1.209a5.11,5.11,0,0,0-.077.849,4.642,4.642,0,0,0,4.629,4.629A5.11,5.11,0,0,0,95.213,168.9Z" transform="translate(-85.6 -163.5)"/></g><path class="c" d="M244.9,21.2a5.05,5.05,0,0,0,.077-.844,4.643,4.643,0,0,0-4.623-4.629h-.006a5.1,5.1,0,0,0-.849.077l4.1-4.1a9.235,9.235,0,0,1,5.4,5.4l-4.1,4.1S244.9,21.2,244.9,21.2Z" transform="translate(-155.091 -11.098)"/><path class="d" d="M264.684,17.1l-1.4,2.741-2.7,1.363s0,0,0,0a5.052,5.052,0,0,0,.077-.844,4.643,4.643,0,0,0-4.623-4.629h0v-.773l.924-2.056,2.33-1.2A9.235,9.235,0,0,1,264.684,17.1Z" transform="translate(-170.771 -11.098)"/><g transform="translate(80.582 6.002)"><path class="e" d="M178.429,116.7l-4.1,4.1a4.676,4.676,0,0,1-3.7,3.7h0l-4.468,4.468-1.056,1.056c.262.293.494.556.741.833,1.7,1.929,3.163,3.7,3.163,5.4a.771.771,0,0,0,1.543,0c0-1.7,1.466-3.466,3.163-5.4,2.376-2.669,5.323-6,5.323-10.909A8.84,8.84,0,0,0,178.429,116.7Z" transform="translate(-165.098 -116.7)"/><path class="f" d="M264.685,116.7l-4.1,4.1h0a4.676,4.676,0,0,1-3.7,3.7h0l-.847.847v11.676a.764.764,0,0,0,.77-.771c0-1.7,1.466-3.466,3.163-5.4,2.376-2.669,5.323-6,5.323-10.909a8.841,8.841,0,0,0-.6-3.256Z" transform="translate(-251.354 -116.7)"/></g><g transform="translate(85.259 13.809)"><path class="g" d="M256.031,269.347l.847-.847a5.12,5.12,0,0,1-.847.077Z" transform="translate(-256.031 -268.5)"/></g><path class="d" d="M138.6.6l-4.1,4.1a4.683,4.683,0,0,0-2.422,1.281l-2.386-1L128.8,2.716A9.172,9.172,0,0,1,135.342,0,8.841,8.841,0,0,1,138.6.6Z" transform="translate(-50.084)"/><path class="h" d="M256.031,3.859,259.285.6a8.84,8.84,0,0,0-3.254-.6V3.859Z" transform="translate(-170.772 -0.003)"/><path class="i" d="M81.987,56.071a4.683,4.683,0,0,0-1.281,2.422l-4.212,4.212A11.648,11.648,0,0,1,76,59.342,9.171,9.171,0,0,1,78.716,52.8Z" transform="translate(0 -50.084)"/></g></svg>