<svg id="btn_line" xmlns="http://www.w3.org/2000/svg" width="24" height="24" viewBox="0 0 24 24">
  <rect id="Rectangle_2524" data-name="Rectangle 2524" width="24" height="24" fill="none"/>
  <path id="Path_3214" data-name="Path 3214" d="M-312.159,295.194c-5.689,0-10.3,3.693-10.3,8.248,0,4.06,3.664,7.436,8.489,8.121h0c.113.016.228.03.342.043,1.643.342.219,2.4.757,2.819.619.484,5.307-2.651,8.156-5.284a8.926,8.926,0,0,0,1.12-1.118l.006-.007a2.125,2.125,0,0,0,.191-.238,7.049,7.049,0,0,0,1.538-4.337C-301.858,298.887-306.47,295.194-312.159,295.194Zm-3.362,10.342a.539.539,0,0,1-.537.537h-2.077a.539.539,0,0,1-.537-.537v-3.984a.539.539,0,0,1,.537-.537h.045a.539.539,0,0,1,.537.537v3.4h1.5a.539.539,0,0,1,.537.537Zm1.553,0a.539.539,0,0,1-.537.537h-.045a.539.539,0,0,1-.537-.537v-3.984a.539.539,0,0,1,.537-.537h.045a.539.539,0,0,1,.537.537Zm4.866,0a.536.536,0,0,1-.155.377h0a.379.379,0,0,1-.131.1.532.532,0,0,1-.251.063h-.045a.533.533,0,0,1-.2-.04.452.452,0,0,1-.209-.154h0a.544.544,0,0,1-.039-.054l-1.956-2.671v2.383a.539.539,0,0,1-.537.537h-.045a.539.539,0,0,1-.537-.537v-3.984a.539.539,0,0,1,.537-.537h.045a.538.538,0,0,1,.466.272l1.942,2.6v-2.339a.539.539,0,0,1,.537-.537h.045a.539.539,0,0,1,.537.537Zm3.84-3.93a.539.539,0,0,1-.537.537h-1.5v.851h1.5a.539.539,0,0,1,.537.537v.045a.539.539,0,0,1-.537.537h-1.5v.851h1.5a.539.539,0,0,1,.537.537v.045a.539.539,0,0,1-.537.537h-2.077a.539.539,0,0,1-.537-.537v-3.984a.539.539,0,0,1,.537-.537h2.077a.539.539,0,0,1,.537.537Z" transform="translate(322.608 -292.737)" fill="#fff"/>
</svg>
