<svg id="signin_logo"
  xmlns="http://www.w3.org/2000/svg" width="488" height="152" viewBox="0 0 488 152">
  <g id="Group_1603" data-name="Group 1603" transform="translate(-63.507 -349.04)">
    <path id="Path_741" data-name="Path 741" d="M156.513,363.552h29.005c3.727,14.042,7.516,28.288,11.287,42.537q5.643,21.321,11.259,42.65h.9c.449-1.326,1-2.626,1.332-3.978q9.2-37.44,18.34-74.892c1.582-6.485,1.537-6.493,8.253-6.493,8.5,0,16.994.057,25.489-.048,2.2-.027,3.062.7,3.609,2.888q9.663,38.558,19.548,77.059a9.551,9.551,0,0,0,1.97,4.1c.7-2.489,1.456-4.965,2.094-7.472q9.283-36.455,18.479-72.928c.684-2.732,1.8-3.753,4.72-3.678,8.256.212,16.521.073,25.146.073-1.319,4.925-2.444,9.511-3.781,14.036-5.5,18.617-11.1,37.206-16.6,55.824q-8.118,27.5-16.09,55.045c-.495,1.707-1.343,2.269-3.172,2.248-7.325-.088-14.656-.086-21.976.131-2.6.076-3.5-1.1-4.053-3.3q-7.441-29.68-14.962-59.34-3.917-15.527-7.828-31.06c-.318-1.251-.807-2.46-1.217-3.687l-.987-.027c-.772,2.632-1.62,5.245-2.3,7.9q-11.209,43.394-22.317,86.813c-.5,1.98-1.416,2.632-3.246,2.626-7.327-.026-14.655-.078-21.981,0-2.089.022-2.872-.88-3.445-2.8q-11.474-38.4-23.106-76.748-6.691-22.132-13.447-44.247C157.126,365.791,156.862,364.788,156.513,363.552Z" transform="translate(51.451 1.63)" fill="#fff"/>
    <path id="Path_742" data-name="Path 742" d="M155.5,419.868c-8.092,2.89-16.192,5.757-24.276,8.675-10.528,3.8-21.03,7.669-31.574,11.419-1.9.676-2.29,1.506-1.843,3.523,3.982,17.981,21.058,29.029,37.85,29.641,10.555.385,20.624-1.192,29.556-7.362a34.57,34.57,0,0,0,12.506-15.917,56.247,56.247,0,0,0-1.147-46.106c-4.406-9.531-12.35-15.554-22.562-18.571a53.622,53.622,0,0,0-39.785,3.1c-6.785,3.285-11.326,9.061-14.562,15.893a4.588,4.588,0,0,1-3.323,2.2c-7.632.194-15.272.1-23.928.1,1.289-3.561,2.082-6.846,3.6-9.752,8.3-15.933,20.947-26.673,38.326-31.775a85.94,85.94,0,0,1,30.621-3.073c18.854,1.361,35.643,7.822,48.309,22.422,7.9,9.112,12.257,20.013,14.363,31.95a71.909,71.909,0,0,1-4.965,41.876c-6.862,15.85-18.711,26.627-35.331,31.762-22.459,6.938-44.653,6.583-66.038-3.8-13.194-6.405-21.835-17.237-27.16-30.8-2.971-7.569-4.077-15.462-4.6-23.525-.251-3.9,1.461-6.171,4.86-7.027C80.32,423.226,86.3,421.345,92.345,421c20.95-1.2,41.935-1.809,62.907-2.645Z" transform="translate(0 0.634)" fill="#fff"/>
    <path id="Path_743" data-name="Path 743" d="M305.336,492.006H279.123V365.169H305.45v15.04c2.365-2.182,4.047-3.856,5.853-5.384,10.438-8.835,22.56-13.234,36.17-14.058,9.93-.6,19.68-.175,29.1,3.31,18.786,6.951,29.387,20.645,31.437,40.326,1.151,11.035.708,22.245.777,33.379.1,16.564.019,33.13.016,49.7,0,1.362,0,2.726,0,4.795-2.606,0-4.887.008-7.169,0-5.309-.021-10.621-.166-15.926-.024-2.357.064-3.1-.566-3.065-3.022.138-9.112.052-18.229.013-27.344-.068-16.1-.075-32.2-.271-48.294-.221-18.068-7.946-27.328-25.245-30.033-13.787-2.156-26.883-.344-38.164,8.612a34.457,34.457,0,0,0-13.63,28.313q.048,31.377-.01,62.756Z" transform="translate(123.956 0)" fill="#fff"/>
  </g>
  <rect id="Rectangle_1726" data-name="Rectangle 1726" width="488" height="152" fill="none"/>
</svg>
