<svg id="Component_102_1" data-name="Component 102 – 1" xmlns="http://www.w3.org/2000/svg" width="55.524" height="67.011" viewBox="0 0 55.524 67.011">
  <g id="Group_2269" data-name="Group 2269" transform="translate(-530.001 -142.056)" opacity="0.58">
    <path id="Path_2609" data-name="Path 2609" d="M531.6,142.056a1.6,1.6,0,1,0,1.6,1.6A1.6,1.6,0,0,0,531.6,142.056Z" fill="#4bb651"/>
    <path id="Path_2610" data-name="Path 2610" d="M549.307,142.056a1.6,1.6,0,1,0,1.6,1.6A1.6,1.6,0,0,0,549.307,142.056Z" transform="translate(-4.627)" fill="#4bb651"/>
    <path id="Path_2611" data-name="Path 2611" d="M567.017,142.056a1.6,1.6,0,1,0,1.595,1.6A1.6,1.6,0,0,0,567.017,142.056Z" transform="translate(-9.253)" fill="#4bb651"/>
    <path id="Path_2612" data-name="Path 2612" d="M584.726,142.056a1.6,1.6,0,1,0,1.6,1.6A1.6,1.6,0,0,0,584.726,142.056Z" transform="translate(-13.88)" fill="#4bb651"/>
    <path id="Path_2613" data-name="Path 2613" d="M602.436,145.247a1.6,1.6,0,1,0-1.595-1.6A1.6,1.6,0,0,0,602.436,145.247Z" transform="translate(-18.507)" fill="#4bb651"/>
    <path id="Path_2614" data-name="Path 2614" d="M531.6,159.334a1.6,1.6,0,1,0,1.6,1.6A1.6,1.6,0,0,0,531.6,159.334Z" transform="translate(0 -4.514)" fill="#4bb651"/>
    <path id="Path_2615" data-name="Path 2615" d="M549.307,159.334a1.6,1.6,0,1,0,1.6,1.6A1.6,1.6,0,0,0,549.307,159.334Z" transform="translate(-4.627 -4.514)" fill="#4bb651"/>
    <path id="Path_2616" data-name="Path 2616" d="M567.017,159.334a1.6,1.6,0,1,0,1.595,1.6A1.6,1.6,0,0,0,567.017,159.334Z" transform="translate(-9.253 -4.514)" fill="#4bb651"/>
    <path id="Path_2617" data-name="Path 2617" d="M584.726,159.334a1.6,1.6,0,1,0,1.6,1.6A1.6,1.6,0,0,0,584.726,159.334Z" transform="translate(-13.88 -4.514)" fill="#4bb651"/>
    <path id="Path_2618" data-name="Path 2618" d="M602.436,159.334a1.6,1.6,0,1,0,1.6,1.6A1.6,1.6,0,0,0,602.436,159.334Z" transform="translate(-18.507 -4.514)" fill="#4bb651"/>
    <path id="Path_2619" data-name="Path 2619" d="M531.6,176.612a1.6,1.6,0,1,0,1.6,1.6A1.6,1.6,0,0,0,531.6,176.612Z" transform="translate(0 -9.028)" fill="#4bb651"/>
    <circle id="Ellipse_343" data-name="Ellipse 343" cx="1.596" cy="1.596" r="1.596" transform="translate(543.084 167.584)" fill="#4bb651"/>
    <circle id="Ellipse_344" data-name="Ellipse 344" cx="1.596" cy="1.596" r="1.596" transform="translate(556.167 167.584)" fill="#4bb651"/>
    <path id="Path_2620" data-name="Path 2620" d="M584.726,176.612a1.6,1.6,0,1,0,1.6,1.6A1.6,1.6,0,0,0,584.726,176.612Z" transform="translate(-13.88 -9.028)" fill="#4bb651"/>
    <path id="Path_2621" data-name="Path 2621" d="M602.436,176.612a1.6,1.6,0,1,0,1.6,1.6A1.6,1.6,0,0,0,602.436,176.612Z" transform="translate(-18.507 -9.028)" fill="#4bb651"/>
    <path id="Path_2622" data-name="Path 2622" d="M531.6,193.89a1.6,1.6,0,1,0,1.6,1.6A1.6,1.6,0,0,0,531.6,193.89Z" transform="translate(0 -13.542)" fill="#4bb651"/>
    <path id="Path_2623" data-name="Path 2623" d="M549.307,193.89a1.6,1.6,0,1,0,1.6,1.6A1.6,1.6,0,0,0,549.307,193.89Z" transform="translate(-4.627 -13.542)" fill="#4bb651"/>
    <path id="Path_2624" data-name="Path 2624" d="M567.017,193.89a1.6,1.6,0,1,0,1.595,1.6A1.6,1.6,0,0,0,567.017,193.89Z" transform="translate(-9.253 -13.542)" fill="#4bb651"/>
    <path id="Path_2625" data-name="Path 2625" d="M584.726,193.89a1.6,1.6,0,1,0,1.6,1.6A1.6,1.6,0,0,0,584.726,193.89Z" transform="translate(-13.88 -13.542)" fill="#4bb651"/>
    <path id="Path_2626" data-name="Path 2626" d="M602.436,193.89a1.6,1.6,0,1,0,1.6,1.6A1.6,1.6,0,0,0,602.436,193.89Z" transform="translate(-18.507 -13.542)" fill="#4bb651"/>
    <path id="Path_2627" data-name="Path 2627" d="M531.6,211.168a1.6,1.6,0,1,0,1.6,1.595A1.6,1.6,0,0,0,531.6,211.168Z" transform="translate(0 -18.055)" fill="#4bb651"/>
    <path id="Path_2628" data-name="Path 2628" d="M549.307,211.168a1.6,1.6,0,1,0,1.6,1.595A1.6,1.6,0,0,0,549.307,211.168Z" transform="translate(-4.627 -18.055)" fill="#4bb651"/>
    <path id="Path_2629" data-name="Path 2629" d="M567.017,211.168a1.6,1.6,0,1,0,1.595,1.595A1.6,1.6,0,0,0,567.017,211.168Z" transform="translate(-9.253 -18.055)" fill="#4bb651"/>
    <path id="Path_2630" data-name="Path 2630" d="M584.726,211.168a1.6,1.6,0,1,0,1.6,1.595A1.6,1.6,0,0,0,584.726,211.168Z" transform="translate(-13.88 -18.055)" fill="#4bb651"/>
    <path id="Path_2631" data-name="Path 2631" d="M602.436,211.168a1.6,1.6,0,1,0,1.6,1.595A1.6,1.6,0,0,0,602.436,211.168Z" transform="translate(-18.507 -18.055)" fill="#4bb651"/>
    <path id="Path_2632" data-name="Path 2632" d="M531.6,228.446a1.6,1.6,0,1,0,1.6,1.595A1.6,1.6,0,0,0,531.6,228.446Z" transform="translate(0 -22.569)" fill="#4bb651"/>
    <path id="Path_2633" data-name="Path 2633" d="M549.307,228.446a1.6,1.6,0,1,0,1.6,1.595A1.6,1.6,0,0,0,549.307,228.446Z" transform="translate(-4.627 -22.569)" fill="#4bb651"/>
    <path id="Path_2634" data-name="Path 2634" d="M567.017,228.446a1.6,1.6,0,1,0,1.595,1.595A1.6,1.6,0,0,0,567.017,228.446Z" transform="translate(-9.253 -22.569)" fill="#4bb651"/>
    <path id="Path_2635" data-name="Path 2635" d="M584.726,228.446a1.6,1.6,0,1,0,1.6,1.595A1.6,1.6,0,0,0,584.726,228.446Z" transform="translate(-13.88 -22.569)" fill="#4bb651"/>
    <path id="Path_2636" data-name="Path 2636" d="M602.436,228.446a1.6,1.6,0,1,0,1.6,1.595A1.6,1.6,0,0,0,602.436,228.446Z" transform="translate(-18.507 -22.569)" fill="#4bb651"/>
  </g>
</svg>
