<svg id="ic_activity" xmlns="http://www.w3.org/2000/svg" width="60" height="60" viewBox="0 0 60 60">
  <rect id="Rectangle_2320" data-name="Rectangle 2320" width="60" height="60" rx="20" transform="translate(60) rotate(90)" fill="#fff"/>
  <circle id="Ellipse_381" data-name="Ellipse 381" cx="7.5" cy="7.5" r="7.5" transform="translate(31 28)" fill="#d4e8dc"/>
  <g id="Group_2044" data-name="Group 2044" transform="translate(-441.002 -896.425)">
    <g id="Group_2043" data-name="Group 2043" transform="translate(474.872 927.411)">
      <path id="Path_2922" data-name="Path 2922" d="M473.674,933.436a.674.674,0,0,1-.674-.674v-8.088a.674.674,0,1,1,1.348,0v8.088A.674.674,0,0,1,473.674,933.436Z" transform="translate(-468.956 -924)" fill="#090909"/>
      <path id="Path_2923" data-name="Path 2923" d="M478.762,928.348h-8.088a.674.674,0,1,1,0-1.348h8.088a.674.674,0,1,1,0,1.348Z" transform="translate(-470 -922.956)" fill="#090909"/>
    </g>
    <path id="Path_2924" data-name="Path 2924" d="M471.5,942.188a2.162,2.162,0,0,1-1.642-.748l-12.216-14.265a.692.692,0,0,1-.115-.191A7.991,7.991,0,0,1,456.2,920.5a8.089,8.089,0,0,1,15.3-1.446,8.082,8.082,0,0,1,15.3,1.449,7.988,7.988,0,0,1-1.329,6.492.627.627,0,0,1-.082.15.7.7,0,0,1-.964.164.658.658,0,0,1-.253-.733.644.644,0,0,1,.109-.237,6.67,6.67,0,0,0,1.2-5.54,6.737,6.737,0,0,0-13.308,1.495.674.674,0,0,1-1.348,0,6.725,6.725,0,0,0-2.465-5.213,6.726,6.726,0,0,0-10.842,3.715,6.674,6.674,0,0,0,1.2,5.543.752.752,0,0,1,.063.1l12.094,14.124a.855.855,0,0,0,1.241,0l2.115-2.476a.674.674,0,0,1,1.026.874l-2.118,2.48A2.162,2.162,0,0,1,471.5,942.188Z" transform="translate(0 0)" fill="#090909"/>
  </g>
</svg>
