<svg id="ic_detail_accom" xmlns="http://www.w3.org/2000/svg" width="24" height="24" viewBox="0 0 24 24">
  <rect id="Rectangle_2537" data-name="Rectangle 2537" width="24" height="24" fill="none"/>
  <path id="Path_2974" data-name="Path 2974" d="M187.437-209.179h0a.977.977,0,0,0-.023-.207v-.008l-1.756-7.687c0-.025.007-.048.007-.074v-1.5a4.345,4.345,0,0,0-4.34-4.34h-1.235a4.331,4.331,0,0,0-3.371,1.612A4.333,4.333,0,0,0,173.348-223h-1.236a4.345,4.345,0,0,0-4.339,4.34v1.5c0,.025.005.049.007.074l-1.756,7.687v.008a.975.975,0,0,0-.023.207h0v2.658a.966.966,0,0,0,.886.961v.812a.969.969,0,0,0,.969.969.969.969,0,0,0,.969-.969v-.8h15.788v.8a.969.969,0,0,0,.969.969.969.969,0,0,0,.969-.969v-.812a.966.966,0,0,0,.886-.961v-2.658Zm-19.5,1.689v-.721H185.5v.721Zm8.78-8.7h7.154l.394,1.726h-15.1l.394-1.726Zm-7.881,3.18H184.6l.653,2.859H168.184Zm11.252-8.055h1.235a2.4,2.4,0,0,1,2.4,2.4v.535h-6.038v-.535A2.4,2.4,0,0,1,180.089-221.062Zm-10.378,2.4a2.4,2.4,0,0,1,2.4-2.4h1.236a2.4,2.4,0,0,1,2.4,2.4v.535h-6.039Z" transform="translate(-165 225.327)" fill="#b8b6b6"/>
</svg>
