<svg id="ic_detail_date" xmlns="http://www.w3.org/2000/svg" width="24" height="24" viewBox="0 0 24 24">
  <rect id="Rectangle_2536" data-name="Rectangle 2536" width="24" height="24" fill="none"/>
  <path id="Path_2827" data-name="Path 2827" d="M739.284,9.263h-3.707v-.55a1.028,1.028,0,1,0-2.056,0v.55h-3.348v-.55a1.028,1.028,0,1,0-2.056,0v.55h-3.348v-.55a1.028,1.028,0,1,0-2.056,0v.55h-3.707a1.028,1.028,0,0,0-1.028,1.028v13.2a3.352,3.352,0,0,0,3.372,3.324h15.589a3.352,3.352,0,0,0,3.372-3.324v-13.2A1.028,1.028,0,0,0,739.284,9.263Zm-16.57,2.056v.5a1.028,1.028,0,1,0,2.056,0v-.5h3.348v.5a1.028,1.028,0,1,0,2.056,0v-.5h3.348v.5a1.028,1.028,0,1,0,2.056,0v-.5h2.679v3.157H720.034V11.319Zm14.226,13.439H721.351a1.31,1.31,0,0,1-1.316-1.268V16.532h18.221V23.49A1.31,1.31,0,0,1,736.939,24.758Z" transform="translate(-716.979 -5.358)" fill="#b8b6b6"/>
</svg>
