<svg id="ic_detail_activity" xmlns="http://www.w3.org/2000/svg" width="24" height="24" viewBox="0 0 24 24">
  <rect id="Rectangle_2534" data-name="Rectangle 2534" width="24" height="24" fill="none"/>
  <path id="Path_2995" data-name="Path 2995" d="M199.85,444.37l.083-.123,2.82-2.886a.456.456,0,0,0-.247-.692,2.982,2.982,0,0,1-1.184-.679,2.77,2.77,0,0,1-.106-4.014,2.924,2.924,0,0,1,4.831,1.054.471.471,0,0,0,.714.212l2.81-2.9.122-.086a.471.471,0,0,1,.645.008l3.259,3.071a.439.439,0,0,0,.463-.309,2.934,2.934,0,0,1,2.425-2.009,1.191,1.191,0,0,1,.426,0c2.767.478,3.479,3.3,1.992,4.836a2.718,2.718,0,0,1-1.1.689.427.427,0,0,0-.277.5l3.278,3.089a.451.451,0,0,1,.024.648l-2.964,3.035-.053.04-.018.018a.47.47,0,0,1-.783-.233,3.131,3.131,0,0,0-2.577-2.22,2.93,2.93,0,0,0-.8.053,3.178,3.178,0,0,0-1.447.806,3.086,3.086,0,0,0-.754,1.457,2.734,2.734,0,0,0-.019.791,3.12,3.12,0,0,0,2.375,2.427.458.458,0,0,1,.272.759l-.018.018-.039.055-2.953,3.044a.473.473,0,0,1-.661.006l-3.288-3.079a.438.438,0,0,0-.494.3,2.662,2.662,0,0,1-.652,1.111,2.985,2.985,0,0,1-5.007-1.737,1.119,1.119,0,0,1-.015-.418,2.911,2.911,0,0,1,1.934-2.47.43.43,0,0,0,.293-.468L199.888,445A.454.454,0,0,1,199.85,444.37Z" transform="translate(-198.131 -432.135)" fill="#b8b6b6"/>
</svg>
