<svg id="ic_detail_location" xmlns="http://www.w3.org/2000/svg" width="24" height="24" viewBox="0 0 24 24">
  <rect id="Rectangle_2535" data-name="Rectangle 2535" width="24" height="24" fill="none"/>
  <g id="Group_2257" data-name="Group 2257" transform="translate(-1011.48 -430.011)">
    <path id="Path_2820" data-name="Path 2820" d="M1022.98,453.511a1.036,1.036,0,0,1-.734-.3l-5.987-5.987a9.505,9.505,0,0,1,13.441-13.444h0a9.518,9.518,0,0,1,0,13.444l-5.987,5.987A1.035,1.035,0,0,1,1022.98,453.511Zm0-20.424a7.411,7.411,0,0,0-5.253,12.665l5.253,5.253,5.253-5.253a7.412,7.412,0,0,0-5.253-12.665Z" fill="#b8b6b6"/>
    <path id="Path_2821" data-name="Path 2821" d="M1043.139,464.68a4.125,4.125,0,0,1-2.863-1.169,4.009,4.009,0,0,1-.013-5.683,4.221,4.221,0,0,1,2.914-1.209,3.931,3.931,0,0,1,2.81,1.217,4.017,4.017,0,0,1-2.848,6.844Zm0-5.985a1.982,1.982,0,0,0-1.406.6,1.93,1.93,0,0,0,0,2.732,1.978,1.978,0,0,0,2.781,0,1.932,1.932,0,0,0,0-2.731l-.015-.016a1.879,1.879,0,0,0-1.339-.587Z" transform="translate(-20.14 -20.14)" fill="#b8b6b6"/>
  </g>
</svg>
