<svg id="ic_fac_prayer" xmlns="http://www.w3.org/2000/svg" width="32" height="32" viewBox="0 0 32 32">
  <rect id="Rectangle_2447" data-name="Rectangle 2447" width="32" height="32" fill="none"/>
  <g id="Component_68_1" data-name="Component 68 – 1" transform="translate(4 5.333)">
    <path id="Path_3071" data-name="Path 3071" d="M1285.814,517.628a1.654,1.654,0,0,0-1.327-1.381v-.022q0-3.569,0-7.136a3.6,3.6,0,0,0-3.354-3.649,2.195,2.195,0,0,0-2.413,1.961,2.192,2.192,0,0,0,1.668,2.383,3.786,3.786,0,0,0-.43,2.046c.014.282.007.565,0,.865a9.508,9.508,0,0,0,.042,1.427l-.817.426c-.638.333-1.275.665-1.91,1a1.978,1.978,0,0,0-1.142,2.144,4.143,4.143,0,0,0,.413,1.148c.045.093.09.187.132.28.156.345.628.355.681.355q2.427.005,4.855,0h3.241a.632.632,0,0,0,.651-.887C1286.006,518.275,1285.907,517.952,1285.814,517.628Zm-2.51-2.383c-.727-.5-1.435-.985-2.154-1.491,0-.195,0-.391,0-.595,0-.681-.008-1.385.033-2.067a1.987,1.987,0,0,1,.794-1.388c.556-.478.607-.67.362-1.37-.176-.5-.348-1.011-.521-1.522a2.478,2.478,0,0,1,1.407,1.613,2.79,2.79,0,0,1,.077.614q.008,2.693,0,5.386Zm-2.348-.167-.825.318q.368-.192.734-.388Zm-1.428,1.83c.348-.156.721-.294,1.088-.428.19-.07.384-.141.578-.216a1.243,1.243,0,0,0-.21.24c-.018.025-.035.049-.053.07a.421.421,0,0,0,.177.67c.025.009.05.021.081.035a1,1,0,0,0,.408.111c.591.008,1.183.007,1.816.006h.649c.362,0,.463.075.573.423.05.159.1.32.147.483h-1.8c-1.784,0-3.561,0-5.335.007l-.061,0h-.006a.623.623,0,0,1-.041-.077l-.036-.077a1.268,1.268,0,0,1-.2-.816,1.384,1.384,0,0,1,.141-.383c.037-.06.134-.219.151-.238a1.049,1.049,0,0,1,.216.111A1.717,1.717,0,0,0,1279.528,516.908Zm.376-9.358c0-.033,0-.069.008-.105a1.823,1.823,0,0,1,1.249,1.2.952.952,0,0,1-.792-.136h0a1.048,1.048,0,0,1-.469-.889Z" transform="translate(-1263.237 -496.577)" fill="#84c9c2"/>
    <path id="Path_3072" data-name="Path 3072" d="M1261.853,517.958l0-.006c-.035-.152-.071-.3-.112-.454a1.623,1.623,0,0,0-1.693-1.3h-.309a.824.824,0,0,0,.249-.636q-.014-3.155,0-6.312a.7.7,0,0,0-.815-.783,2.581,2.581,0,0,0-.3.03,2.188,2.188,0,0,0,.171-.828,2.215,2.215,0,0,0-.647-1.6,2.179,2.179,0,0,0-1.581-.644,2.21,2.21,0,0,0,0,4.42,2.973,2.973,0,0,0-.508,1.584c-.016.809-.016,1.63,0,2.44,0,.029,0,.044,0,.047a.393.393,0,0,1-.062.037c-.71.361-1.415.73-2.119,1.1l-.939.491a2.148,2.148,0,0,0-1.142,1.523,2.569,2.569,0,0,0,.362,1.728l.062.127a.909.909,0,0,0,.9.559c1.446-.008,2.89-.008,4.338-.007h2.054c.518,0,1.036,0,1.554,0a.742.742,0,0,0,.63-.251.726.726,0,0,0,.065-.657C1261.948,518.371,1261.9,518.164,1261.853,517.958Zm-4.792-11.325-.886.215a1.055,1.055,0,0,1,.886-.215Zm.42,7.449c-.012-.925-.013-1.759,0-2.549a1.9,1.9,0,0,1,1.321-1.787v1.614l-.02-.037c-.016-.028-.031-.056-.044-.084a.418.418,0,0,0-.366-.254.407.407,0,0,0-.4.235.884.884,0,0,1-.048.081.9.9,0,0,0-.172.473c-.011.771-.01,1.543-.009,2.321v.528l-.624.263-.615.26.466-.238A.849.849,0,0,0,1257.481,514.081Zm1.325,1.3a.324.324,0,0,1-.046.025l-.018.008a.729.729,0,0,0,.064-.08A.266.266,0,0,0,1258.806,515.383Zm-3.225,1.441c.71-.338,1.457-.641,2.187-.933q-.277.141-.553.288a1.019,1.019,0,0,0-.336.326c-.017.022-.033.045-.05.064a.421.421,0,0,0,.173.672c.027.01.053.023.083.036a1,1,0,0,0,.41.112c.581.007,1.164.006,1.74.006h.825c.337,0,.452.087.537.4.046.168.087.336.129.51h-2c-1.714,0-3.427,0-5.131.009-.115,0-.115,0-.178-.122a1.109,1.109,0,0,1,0-1.353c.069-.087.107-.12.11-.132.008.005.021.014.042.03A1.769,1.769,0,0,0,1255.581,516.824Zm.356-8.7,1.919-.463a.93.93,0,0,1-.223.609,1.015,1.015,0,0,1-1.074.364A.981.981,0,0,1,1255.937,508.124Z" transform="translate(-1249.267 -496.573)" fill="#84c9c2"/>
    <path id="Path_3073" data-name="Path 3073" d="M1265.7,487.591l-7.736-3.218-7.5,3.2a8.152,8.152,0,0,0-4.962,7.509v.21h1.261v-.21a6.891,6.891,0,0,1,4.2-6.349l7.013-2.99,7.246,3.014a6.884,6.884,0,0,1,4.251,6.373v.21h1.261v-.21A8.141,8.141,0,0,0,1265.7,487.591Z" transform="translate(-1245.5 -484.373)" fill="#84c9c2" stroke="#84c9c2" stroke-width="1"/>
  </g>
</svg>
