<svg id="ic_fac_cash" xmlns="http://www.w3.org/2000/svg" width="32" height="32" viewBox="0 0 32 32">
  <rect id="Rectangle_2458" data-name="Rectangle 2458" width="32" height="32" fill="none"/>
  <g id="Component_76_1" data-name="Component 76 – 1" transform="translate(3 9)">
    <path id="Path_2791" data-name="Path 2791" d="M876,882a4,4,0,1,1,4-4A4,4,0,0,1,876,882Zm0-7a3,3,0,1,0,3,3A3,3,0,0,0,876,875Z" transform="translate(-864 -870)" fill="#84c9c2" stroke="#84c9c2" stroke-width="1"/>
    <path id="Path_2792" data-name="Path 2792" d="M887.5,885h-23a.5.5,0,0,1-.5-.5v-14a.5.5,0,0,1,.5-.5h23a.5.5,0,0,1,.5.5v14A.5.5,0,0,1,887.5,885ZM865,884h22V871H865Z" transform="translate(-864 -870)" fill="#84c9c2" stroke="#84c9c2" stroke-width="1"/>
    <path id="Path_2793" data-name="Path 2793" d="M887.5,875a4.505,4.505,0,0,1-4.5-4.5.5.5,0,0,1,1,0,3.5,3.5,0,0,0,3.5,3.5.5.5,0,0,1,0,1Z" transform="translate(-864 -870)" fill="#84c9c2" stroke="#84c9c2" stroke-width="1"/>
    <path id="Path_2794" data-name="Path 2794" d="M883.5,885a.5.5,0,0,1-.5-.5,4.505,4.505,0,0,1,4.5-4.5.5.5,0,0,1,0,1,3.5,3.5,0,0,0-3.5,3.5A.5.5,0,0,1,883.5,885Z" transform="translate(-864 -870)" fill="#84c9c2" stroke="#84c9c2" stroke-width="1"/>
    <path id="Path_2795" data-name="Path 2795" d="M864.5,875a.5.5,0,0,1,0-1,3.5,3.5,0,0,0,3.5-3.5.5.5,0,0,1,1,0A4.505,4.505,0,0,1,864.5,875Z" transform="translate(-864 -870)" fill="#84c9c2" stroke="#84c9c2" stroke-width="1"/>
    <path id="Path_2796" data-name="Path 2796" d="M868.5,885a.5.5,0,0,1-.5-.5,3.5,3.5,0,0,0-3.5-3.5.5.5,0,0,1,0-1,4.505,4.505,0,0,1,4.5,4.5A.5.5,0,0,1,868.5,885Z" transform="translate(-864 -870)" fill="#84c9c2" stroke="#84c9c2" stroke-width="1"/>
  </g>
</svg>
