<svg id="ic_fac_toilet" xmlns="http://www.w3.org/2000/svg" width="32" height="32" viewBox="0 0 32 32">
  <rect id="Rectangle_2455" data-name="Rectangle 2455" width="32" height="32" fill="none"/>
  <g id="Component_70_1" data-name="Component 70 – 1" transform="translate(3 7.194)">
    <path id="Path_2775" data-name="Path 2775" d="M211.233,920.9a3.407,3.407,0,0,1-3.39-3.034l-.231-2.082A3.41,3.41,0,0,1,211,912h.463a3.41,3.41,0,0,1,3.389,3.787l-.231,2.082A3.407,3.407,0,0,1,211.233,920.9ZM211,912.742a2.667,2.667,0,0,0-2.652,2.962l.231,2.083a2.669,2.669,0,0,0,5.3,0l.231-2.082a2.668,2.668,0,0,0-2.652-2.963Z" transform="translate(-203.443 -912)" fill="#84c9c2" stroke="#84c9c2" stroke-width="1"/>
    <g id="Group_1836" data-name="Group 1836" transform="translate(12.82)">
      <path id="Path_2776" data-name="Path 2776" d="M229.048,920.9H224.6a2.6,2.6,0,0,1-2.6-2.6.371.371,0,0,1,.371-.371,1.114,1.114,0,0,0,1.113-1.113v-1.484a3.339,3.339,0,0,1,6.677,0v1.484a1.114,1.114,0,0,0,1.113,1.113.371.371,0,0,1,.371.371A2.6,2.6,0,0,1,229.048,920.9Zm-6.277-2.269a1.858,1.858,0,0,0,1.826,1.528h4.451a1.858,1.858,0,0,0,1.826-1.528,1.858,1.858,0,0,1-1.455-1.811v-1.484a2.6,2.6,0,0,0-5.193,0v1.484A1.858,1.858,0,0,1,222.771,918.633Z" transform="translate(-219.982 -912)" fill="#84c9c2" stroke="#84c9c2" stroke-width="1"/>
      <path id="Path_2777" data-name="Path 2777" d="M231.847,933.677H220.394a1.113,1.113,0,0,1-1.079-1.382l.41-1.642A4.815,4.815,0,0,1,224.4,927a.372.372,0,0,1,.147.03l1.571.678,1.571-.678a.372.372,0,0,1,.147-.03,4.815,4.815,0,0,1,4.678,3.653l.41,1.642a1.113,1.113,0,0,1-1.079,1.382Zm-7.52-5.934a4.074,4.074,0,0,0-3.883,3.09l-.411,1.642a.372.372,0,0,0,.361.461h11.453a.372.372,0,0,0,.361-.461l-.411-1.642a4.074,4.074,0,0,0-3.883-3.09l-1.646.711a.368.368,0,0,1-.294,0Z" transform="translate(-219.28 -915.872)" fill="#84c9c2" stroke="#84c9c2" stroke-width="1"/>
    </g>
    <g id="Group_1837" data-name="Group 1837" transform="translate(0 11.129)">
      <path id="Path_2778" data-name="Path 2778" d="M213.746,932.935H202.8l.045-.312a4.845,4.845,0,0,1,4.773-4.14.374.374,0,0,0,.1-.015l2.44-.712,2.44.712a.374.374,0,0,0,.1.015,4.749,4.749,0,0,1,2.037.477,5.98,5.98,0,0,1,.414-.643,5.513,5.513,0,0,0-2.4-.576l-2.493-.727a.38.38,0,0,0-.208,0l-2.493.727a5.592,5.592,0,0,0-5.455,4.777l-.1.735a.371.371,0,0,0,.367.423h11.651A2.171,2.171,0,0,1,213.746,932.935Z" transform="translate(-202 -927.001)" fill="#84c9c2" stroke="#84c9c2" stroke-width="1"/>
    </g>
  </g>
</svg>
