<svg xmlns="http://www.w3.org/2000/svg" width="27" height="24.548" viewBox="0 0 27 24.548">
  <g id="ic_fac_diningroom" transform="translate(0.5 0.519)">
    <path id="Path_3074" data-name="Path 3074" d="M1393.3,506.5h-1.734a2.617,2.617,0,0,0-2.615,2.614v3.467a2.6,2.6,0,0,0,1.847,2.5v5.365a1.527,1.527,0,0,0,1.525,1.525h.976a.654.654,0,0,0,.654-.654V507.154A.654.654,0,0,0,1393.3,506.5Zm-.654,8.7v5.465h-.323a.218.218,0,0,1-.218-.218V515.2Zm-1.08-7.389h1.08v6.082h-1.08a1.309,1.309,0,0,1-1.307-1.307v-3.467A1.309,1.309,0,0,1,1391.571,507.807Z" transform="translate(-1375.025 -498.657)" fill="#84c9c2"/>
    <path id="Path_3075" data-name="Path 3075" d="M1377.58,506.5a.654.654,0,0,0-.654.654v2.463a1.821,1.821,0,0,1-1.156,1.684v-3.531a.654.654,0,0,0-1.307,0v3.56a1.7,1.7,0,0,1-1.156-1.612v-2.564a.654.654,0,1,0-1.307,0v2.564a3,3,0,0,0,2.295,2.925,55.417,55.417,0,0,0-1.679,6.825,2.5,2.5,0,0,0,5,0,55.712,55.712,0,0,0-1.684-6.845,3.119,3.119,0,0,0,2.3-3.006v-2.463A.654.654,0,0,0,1377.58,506.5Zm-2.463,14.161a1.2,1.2,0,0,1-1.193-1.193,38.86,38.86,0,0,1,1.193-4.936,38.894,38.894,0,0,1,1.194,4.936A1.2,1.2,0,0,1,1375.116,520.661Z" transform="translate(-1365.457 -498.657)" fill="#84c9c2"/>
    <path id="Path_3076" data-name="Path 3076" d="M1382.2,496.376l-11.857-7.769a.653.653,0,0,0-.717,0l-11.843,7.76a1.642,1.642,0,0,0-.8,1.4v1.474a.654.654,0,0,0,.654.654h2.567v11.477a.654.654,0,1,0,1.307,0V499.245a.654.654,0,0,0-.654-.654h-2.567v-.821a.358.358,0,0,1,.192-.3l11.5-7.536,11.517,7.546a.346.346,0,0,1,.176.29v.821h-2.567a.654.654,0,0,0-.654.654v12.131a.654.654,0,1,0,1.307,0V499.9h2.567a.654.654,0,0,0,.654-.654V497.77A1.631,1.631,0,0,0,1382.2,496.376Z" transform="translate(-1356.983 -488.5)" fill="#84c9c2" stroke="#84c9c2" stroke-width="1"/>
  </g>
</svg>
