<svg id="ic_fac_smorkarea" xmlns="http://www.w3.org/2000/svg" width="32" height="32" viewBox="0 0 32 32">
  <rect id="Rectangle_2453" data-name="Rectangle 2453" width="32" height="32" fill="none"/>
  <g id="Component_72_1" data-name="Component 72 – 1" transform="translate(4 8)">
    <path id="Path_2779" data-name="Path 2779" d="M1193.232,822.786a.5.5,0,0,0-.62-.34l-16.084,4.716a.5.5,0,0,0-.34.62l1.58,5.432a.5.5,0,0,0,.62.34l4.029-1.181c.015,0,.03,0,.044,0s.026-.016.041-.021l11.97-3.51a.5.5,0,0,0,.34-.62Zm-15.945,5.2,3.112-.913,1.3,4.472-3.112.912Zm5.372,3.277-1.3-4.472,11.054-3.242,1.3,4.471Z" transform="translate(-1176.168 -815.347)" fill="#84c9c2" stroke="#84c9c2" stroke-width="1"/>
    <path id="Path_2780" data-name="Path 2780" d="M1199.191,824.159a6.642,6.642,0,0,0-2.372-3.861c-.233-.2-.476-.4-.719-.594a9,9,0,0,1-1.459-1.356,2.363,2.363,0,0,1-.505-2.294.5.5,0,1,0-.91-.416,3.307,3.307,0,0,0,.631,3.331,9.843,9.843,0,0,0,1.617,1.514c.232.187.464.373.687.568a5.8,5.8,0,0,1,2.042,3.262c.129.824-.157,1.816-.857,2.053a.5.5,0,1,0,.32.947A2.767,2.767,0,0,0,1199.191,824.159Z" transform="translate(-1176.168 -815.347)" fill="#84c9c2" stroke="#84c9c2" stroke-width="1"/>
    <path id="Path_2781" data-name="Path 2781" d="M1192.086,820.82l.086.077a6.214,6.214,0,0,1,1.268,1.4.5.5,0,0,0,.866-.5,7.051,7.051,0,0,0-1.461-1.642l-.086-.078a5.08,5.08,0,0,1-1.26-1.5,1.548,1.548,0,0,1,.051-1.539.5.5,0,0,0-.789-.615,2.506,2.506,0,0,0-.168,2.577A5.983,5.983,0,0,0,1192.086,820.82Z" transform="translate(-1176.168 -815.347)" fill="#84c9c2" stroke="#84c9c2" stroke-width="1"/>
  </g>
</svg>
