<svg xmlns="http://www.w3.org/2000/svg" width="32" height="32" viewBox="0 0 32 32">
    <defs>
        <style>.a,.b{fill:#fff;}.a{opacity:0.26;}</style>
    </defs>
    <circle class="a" cx="16" cy="16" r="16"/>
    <path class="b" d="M455.705,597.239l-2.205-2.168a.641.641,0,0,0-.62-.212.736.736,0,0,0-.411.224l-1.123,1.124a.383.383,0,0,1-.459.065,11.284,11.284,0,0,1-5.094-5.093.383.383,0,0,1,.067-.464l.248-.227c.7-.631,1.1-1.077,1.115-1.485a.663.663,0,0,0-.222-.47l-2.175-2.175a.729.729,0,0,0-.5-.216.657.657,0,0,0-.558.229,3.248,3.248,0,0,0-1.237,2.214c-.284,2.306.774,4.42,3.652,7.3,3.7,3.662,6.722,3.68,7.234,3.649v.008a3.257,3.257,0,0,0,2.254-1.225A.777.777,0,0,0,455.705,597.239Z" transform="translate(-433.484 -576.39)"/>
</svg>