<svg xmlns="http://www.w3.org/2000/svg" width="32" height="32" viewBox="0 0 32 32">
    <defs>
        <style>.a,.b{fill:#fff;}.a{opacity:0.26;}</style>
    </defs>
    <circle class="a" cx="16" cy="16" r="16"/>
    <g transform="translate(-1713.471 -637.003)">
        <g transform="translate(1721.727 644.348)">
            <path class="b" d="M1736.067,657.748a.908.908,0,0,1-.908-.909v-5a5.678,5.678,0,1,0-11.356,0v5a.908.908,0,1,1-1.817,0v-5a7.495,7.495,0,1,1,14.99,0v5a.908.908,0,0,1-.909.909Z" transform="translate(-1721.986 -644.348)"/>
        </g>
        <g transform="translate(1718.471 650.177)">
            <g transform="translate(16.579)">
                <path class="b" d="M1737.277,658.211a.908.908,0,1,1,0-1.817,1.981,1.981,0,1,0,0-3.938.908.908,0,1,1,0-1.817,3.792,3.792,0,1,1,0,7.571Z" transform="translate(-1736.368 -650.64)"/>
            </g>
            <path class="b" d="M1722.485,658.211a3.792,3.792,0,1,1,0-7.571.908.908,0,1,1,0,1.817,1.981,1.981,0,1,0,0,3.938.908.908,0,1,1,0,1.817Z" transform="translate(-1718.471 -650.64)"/>
        </g>
        <g transform="translate(1730.905 656.215)">
            <path class="b" d="M1733.032,661.76l-.256,0a.911.911,0,0,1-.882-.935.9.9,0,0,1,.934-.883,3.306,3.306,0,0,0,2.528-.711,1.813,1.813,0,0,0,.531-1.144.912.912,0,0,1,.9-.926h.01a.908.908,0,0,1,.909.9,3.6,3.6,0,0,1-1.072,2.468,4.936,4.936,0,0,1-3.6,1.238Z" transform="translate(-1731.894 -657.158)"/>
        </g>
        <path class="b" d="M1732.423,659.487a1.448,1.448,0,1,0,1.448,1.448,1.448,1.448,0,0,0-1.448-1.448Z" transform="translate(-0.921 -1.115)"/>
    </g>
</svg>