<svg id="ic_fac_creditcard" xmlns="http://www.w3.org/2000/svg" width="32" height="32" viewBox="0 0 32 32">
  <rect id="Rectangle_2456" data-name="Rectangle 2456" width="32" height="32" fill="none"/>
  <g id="Component_78_1" data-name="Component 78 – 1" transform="translate(4 4)">
    <path id="Path_2797" data-name="Path 2797" d="M519.5,264h-14a1.5,1.5,0,0,1-1.5-1.5v-21a1.5,1.5,0,0,1,1.5-1.5h14a1.5,1.5,0,0,1,1.5,1.5v21A1.5,1.5,0,0,1,519.5,264Zm-14-23a.5.5,0,0,0-.5.5v21a.5.5,0,0,0,.5.5h14a.5.5,0,0,0,.5-.5v-21a.5.5,0,0,0-.5-.5Z" transform="translate(-504 -240)" fill="#84c9c2" stroke="#84c9c2" stroke-width="1"/>
    <path id="Path_2798" data-name="Path 2798" d="M517.5,250h-10a.5.5,0,0,1-.5-.5v-7a.5.5,0,0,1,.5-.5h10a.5.5,0,0,1,.5.5v7A.5.5,0,0,1,517.5,250Zm-9.5-1h9v-6h-9Z" transform="translate(-504 -240)" fill="#84c9c2" stroke="#84c9c2" stroke-width="1"/>
    <path id="Path_2799" data-name="Path 2799" d="M526.5,259h-6a.5.5,0,0,1-.5-.5v-16a.5.5,0,0,1,.5-.5h6a1.5,1.5,0,0,1,1.5,1.5v14A1.5,1.5,0,0,1,526.5,259Zm-5.5-1h5.5a.5.5,0,0,0,.5-.5v-14a.5.5,0,0,0-.5-.5H521Z" transform="translate(-504 -240)" fill="#84c9c2" stroke="#84c9c2" stroke-width="1"/>
    <path id="Path_2800" data-name="Path 2800" d="M524.5,259a.5.5,0,0,1-.5-.5v-16a.5.5,0,0,1,1,0v16A.5.5,0,0,1,524.5,259Z" transform="translate(-504 -240)" fill="#84c9c2" stroke="#84c9c2" stroke-width="1"/>
    <path id="Path_2801" data-name="Path 2801" d="M508.5,255a.5.5,0,0,1-.5-.5V253h-1.5a.5.5,0,0,1,0-1h2a.5.5,0,0,1,.5.5v2A.5.5,0,0,1,508.5,255Z" transform="translate(-504 -240)" fill="#84c9c2" stroke="#84c9c2" stroke-width="1"/>
    <path id="Path_2802" data-name="Path 2802" d="M513.5,255a.5.5,0,0,1-.5-.5V253h-1.5a.5.5,0,0,1,0-1h2a.5.5,0,0,1,.5.5v2A.5.5,0,0,1,513.5,255Z" transform="translate(-504 -240)" fill="#84c9c2" stroke="#84c9c2" stroke-width="1"/>
    <path id="Path_2803" data-name="Path 2803" d="M518.5,255a.5.5,0,0,1-.5-.5V253h-1.5a.5.5,0,0,1,0-1h2a.5.5,0,0,1,.5.5v2A.5.5,0,0,1,518.5,255Z" transform="translate(-504 -240)" fill="#84c9c2" stroke="#84c9c2" stroke-width="1"/>
    <path id="Path_2804" data-name="Path 2804" d="M508.5,261a.5.5,0,0,1-.5-.5V259h-1.5a.5.5,0,0,1,0-1h2a.5.5,0,0,1,.5.5v2A.5.5,0,0,1,508.5,261Z" transform="translate(-504 -240)" fill="#84c9c2" stroke="#84c9c2" stroke-width="1"/>
    <path id="Path_2805" data-name="Path 2805" d="M513.5,261a.5.5,0,0,1-.5-.5V259h-1.5a.5.5,0,0,1,0-1h2a.5.5,0,0,1,.5.5v2A.5.5,0,0,1,513.5,261Z" transform="translate(-504 -240)" fill="#84c9c2" stroke="#84c9c2" stroke-width="1"/>
    <path id="Path_2806" data-name="Path 2806" d="M518.5,261a.5.5,0,0,1-.5-.5V259h-1.5a.5.5,0,0,1,0-1h2a.5.5,0,0,1,.5.5v2A.5.5,0,0,1,518.5,261Z" transform="translate(-504 -240)" fill="#84c9c2" stroke="#84c9c2" stroke-width="1"/>
  </g>
</svg>
