<svg xmlns="http://www.w3.org/2000/svg" width="32" height="32" viewBox="0 0 32 32">
    <defs>
        <style>.a,.b{fill:#fff;}.a{opacity:0.26;}</style>
    </defs>
    <circle class="a" cx="16" cy="16" r="16"/>
    <g transform="translate(-30.447 -635.43)">
        <g transform="translate(37.447 645.831)">
            <path class="b" d="M53.368,658.708H39.278a1.832,1.832,0,0,1-1.831-1.83V647.66a1.832,1.832,0,0,1,1.831-1.829H53.368A1.832,1.832,0,0,1,55.2,647.66v9.218a1.832,1.832,0,0,1-1.829,1.83ZM39.278,647.383a.279.279,0,0,0-.279.277v9.218a.28.28,0,0,0,.279.278H53.368a.278.278,0,0,0,.278-.278V647.66a.277.277,0,0,0-.278-.277Z" transform="translate(-37.447 -645.831)"/>
        </g>
        <g transform="translate(37.906 651.904)">
            <path class="b" d="M53.489,659.924H39.4a1.448,1.448,0,0,1-1.346-.931.387.387,0,0,1,.1-.427l5.5-4.9a.388.388,0,0,1,.517.578l-5.264,4.693a.663.663,0,0,0,.488.216H53.489a.664.664,0,0,0,.487-.215l-5.324-4.748a.388.388,0,1,1,.517-.578l5.56,4.959a.386.386,0,0,1,.1.426,1.444,1.444,0,0,1-1.344.932Z" transform="translate(-38.028 -653.508)"/>
        </g>
        <g transform="translate(37.906 646.219)">
            <path class="b" d="M46.444,654.937a.391.391,0,0,1-.259-.1l-8.027-7.158a.388.388,0,0,1-.1-.427,1.448,1.448,0,0,1,1.346-.931H53.489a1.444,1.444,0,0,1,1.344.932.387.387,0,0,1-.1.426L46.7,654.839a.384.384,0,0,1-.258.1Zm-7.532-7.623,7.532,6.716,7.532-6.717a.667.667,0,0,0-.487-.215H39.4a.66.66,0,0,0-.487.216Z" transform="translate(-38.028 -646.322)"/>
        </g>
    </g>
</svg>