<svg id="ic_fac_air" xmlns="http://www.w3.org/2000/svg" width="32" height="32" viewBox="0 0 32 32">
  <rect id="Rectangle_2452" data-name="Rectangle 2452" width="32" height="32" fill="none"/>
  <g id="ac" transform="translate(4 7.416)">
    <path id="Path_2782" data-name="Path 2782" d="M309.052,1143.729h-18.6a2.451,2.451,0,0,1-2.448-2.448v-8.812a1.471,1.471,0,0,1,1.469-1.469h20.563a1.471,1.471,0,0,1,1.469,1.469v8.813A2.451,2.451,0,0,1,309.052,1143.729Zm-19.583-11.75a.49.49,0,0,0-.49.49v8.813a1.471,1.471,0,0,0,1.469,1.469h18.6a1.471,1.471,0,0,0,1.469-1.469v-8.812a.49.49,0,0,0-.49-.49Z" transform="translate(-288 -1131)" fill="#84c9c2" stroke="#84c9c2" stroke-width="1"/>
    <path id="Path_2783" data-name="Path 2783" d="M311.01,1137.979H288.49a.49.49,0,0,1,0-.979H311.01a.49.49,0,0,1,0,.979Z" transform="translate(-288 -1131.125)" fill="#84c9c2" stroke="#84c9c2" stroke-width="1"/>
    <path id="Path_2784" data-name="Path 2784" d="M307.667,1143.917H292v-2.448a1.471,1.471,0,0,1,1.469-1.469H306.2a1.471,1.471,0,0,1,1.469,1.469Zm-14.687-.979h13.708v-1.469a.49.49,0,0,0-.49-.49H293.469a.49.49,0,0,0-.49.49Z" transform="translate(-288.083 -1131.188)" fill="#84c9c2" stroke="#84c9c2" stroke-width="1"/>
    <path id="Path_2785" data-name="Path 2785" d="M309.406,1150.9A4.706,4.706,0,0,1,305,1146.49a.49.49,0,1,1,.979,0,3.713,3.713,0,0,0,3.427,3.427.49.49,0,1,1,0,.979Z" transform="translate(-288.354 -1131.313)" fill="#84c9c2" stroke="#84c9c2" stroke-width="1"/>
    <path id="Path_2786" data-name="Path 2786" d="M290.49,1150.9a.49.49,0,1,1,0-.979,3.713,3.713,0,0,0,3.427-3.427.49.49,0,1,1,.979,0A4.706,4.706,0,0,1,290.49,1150.9Z" transform="translate(-288.042 -1131.313)" fill="#84c9c2" stroke="#84c9c2" stroke-width="1"/>
    <circle id="Ellipse_354" data-name="Ellipse 354" cx="0.5" cy="0.5" r="0.5" transform="translate(3 2.584)" fill="#84c9c2" stroke="#84c9c2" stroke-width="1"/>
    <circle id="Ellipse_355" data-name="Ellipse 355" cx="0.5" cy="0.5" r="0.5" transform="translate(5 2.584)" fill="#84c9c2" stroke="#84c9c2" stroke-width="1"/>
  </g>
</svg>
