<svg id="ic_fac_wifi" xmlns="http://www.w3.org/2000/svg" width="32" height="32" viewBox="0 0 32 32">
  <rect id="Rectangle_2443" data-name="Rectangle 2443" width="32" height="32" fill="none"/>
  <g id="Component_64_1" data-name="Component 64 – 1" transform="translate(5 7.5)">
    <path id="Path_3044" data-name="Path 3044" d="M169.029,1185.018a15.406,15.406,0,0,0-21.8,0,1.233,1.233,0,0,0,1.744,1.744,12.94,12.94,0,0,1,18.31,0,1.233,1.233,0,1,0,1.744-1.744Z" transform="translate(-146.87 -1180.5)" fill="#84c9c2"/>
    <path id="Path_3045" data-name="Path 3045" d="M157.636,1183.5a11.637,11.637,0,0,0-8.284,3.432,1.233,1.233,0,1,0,1.744,1.744,9.248,9.248,0,0,1,13.081,0,1.233,1.233,0,0,0,1.744-1.744A11.637,11.637,0,0,0,157.636,1183.5Z" transform="translate(-146.375 -1179.8)" fill="#84c9c2"/>
    <path id="Path_3046" data-name="Path 3046" d="M157.141,1186.5a7.966,7.966,0,0,0-5.67,2.347,1.233,1.233,0,0,0,1.744,1.744,5.556,5.556,0,0,1,7.851,0,1.233,1.233,0,0,0,1.744-1.744A7.966,7.966,0,0,0,157.141,1186.5Z" transform="translate(-145.88 -1179.1)" fill="#84c9c2"/>
    <path id="Path_3047" data-name="Path 3047" d="M156.583,1190.5a3.083,3.083,0,1,0,3.083,3.083A3.087,3.087,0,0,0,156.583,1190.5Zm0,3.7a.617.617,0,1,1,.617-.617A.618.618,0,0,1,156.583,1194.2Z" transform="translate(-145.323 -1178.167)" fill="#84c9c2"/>
  </g>
</svg>
