<svg id="ic_fac_fan" xmlns="http://www.w3.org/2000/svg" width="32" height="32" viewBox="0 0 32 32">
  <rect id="Rectangle_2451" data-name="Rectangle 2451" width="32" height="32" fill="none"/>
  <g id="Component_73_1" data-name="Component 73 – 1" transform="translate(4 3.98)">
    <path id="Path_3049" data-name="Path 3049" d="M2136.216,664.556a12.247,12.247,0,1,1-12.287,12.063A12.25,12.25,0,0,1,2136.216,664.556Zm0,1.347a10.9,10.9,0,1,0,10.864,11.12A10.9,10.9,0,0,0,2136.215,665.9Z" transform="translate(-2123.928 -664.556)" fill="#84c9c2"/>
    <path id="Path_3051" data-name="Path 3051" d="M2264.5,707.658a16.49,16.49,0,0,1-.763-5.012,1.71,1.71,0,0,1,1.01-1.516,5.705,5.705,0,0,1,4.159-.33,4.484,4.484,0,0,1,1.844.892,1,1,0,0,1-.014,1.768,14.4,14.4,0,0,0-3.225,3.33c-.246.384-.44.564-.94.442A2.844,2.844,0,0,0,2264.5,707.658Z" transform="translate(-2253.917 -698.037)" fill="#84c9c2"/>
    <path id="Path_3052" data-name="Path 3052" d="M2335.975,805.03c.775-.181,1.5-.393,2.249-.514.8-.131,1.619-.2,2.432-.255a1.811,1.811,0,0,1,1.955,1.217,5.9,5.9,0,0,1-.581,5.7,1.762,1.762,0,0,1-.537.491.861.861,0,0,1-1.183-.242c-.468-.536-.912-1.094-1.4-1.614a10.493,10.493,0,0,0-2.418-2,.324.324,0,0,1-.142-.261A3.269,3.269,0,0,0,2335.975,805.03Z" transform="translate(-2321.107 -794.458)" fill="#84c9c2"/>
    <path id="Path_3053" data-name="Path 3053" d="M2167.119,773.3a18.522,18.522,0,0,1-4.463.792,6.424,6.424,0,0,1-.7-.043,1.536,1.536,0,0,1-1.243-.792,5.368,5.368,0,0,1-.569-3.825,5.247,5.247,0,0,1,.81-2.108,2.739,2.739,0,0,1,.383-.453.956.956,0,0,1,1.537.121c.838.921,1.694,1.828,2.578,2.706a9.844,9.844,0,0,0,1.13.82c.079.059.193.18.177.243A3.292,3.292,0,0,0,2167.119,773.3Z" transform="translate(-2157.5 -759.39)" fill="#84c9c2"/>
    <path id="Path_3054" data-name="Path 3054" d="M2232.647,876.367c.227,1.144.471,2.21.638,3.29a10.415,10.415,0,0,1,.067,1.813,1.535,1.535,0,0,1-.843,1.359,5.37,5.37,0,0,1-4.2.434,9.056,9.056,0,0,1-1.779-.785,1.662,1.662,0,0,1-.534-.541.814.814,0,0,1,.115-1.111c.233-.227.5-.423.745-.635a13.153,13.153,0,0,0,2.988-3.309.291.291,0,0,1,.235-.128A3.29,3.29,0,0,0,2232.647,876.367Z" transform="translate(-2218.679 -861.515)" fill="#84c9c2"/>
    <path id="Path_3055" data-name="Path 3055" d="M2266.919,804.846a2.589,2.589,0,1,1-2.656-2.548A2.592,2.592,0,0,1,2266.919,804.846Z" transform="translate(-2252.079 -792.639)" fill="#84c9c2"/>
  </g>
</svg>
