<svg id="ic_fac_carpark" xmlns="http://www.w3.org/2000/svg" width="32" height="32" viewBox="0 0 32 32">
  <rect id="Rectangle_2442" data-name="Rectangle 2442" width="32" height="32" fill="none"/>
  <g id="Component_63_9" data-name="Component 63 – 9" transform="translate(5 4)">
    <path id="Path_3048" data-name="Path 3048" d="M429.426,1138.03l-.965-4.8a3.969,3.969,0,0,0-3.961-2.726h-1a2,2,0,0,0-2-2h-3a2,2,0,0,0-2,2h-1a3.98,3.98,0,0,0-3.98,2.8l-.946,4.727c-2.187,2.418-2.189,9.119-2.164,10.488a1,1,0,0,0,1,.981h.09v1a2,2,0,0,0,2,2h1a2,2,0,0,0,2-2v-1h11v1a2,2,0,0,0,2,2h1a2,2,0,0,0,2-2v-1h.09a1,1,0,0,0,1-.981C431.615,1147.15,431.613,1140.449,429.426,1138.03ZM415.5,1132.5h9a2.031,2.031,0,0,1,2.02,1.2l.76,3.8H412.719l.742-3.726A2.027,2.027,0,0,1,415.5,1132.5Zm-3.572,7h16.144c.969,1.258,1.48,4.785,1.521,8H424.5v-2.89a3.115,3.115,0,0,0-3.111-3.11h-2.778a3.115,3.115,0,0,0-3.111,3.11v2.89h-5.093C410.448,1144.285,410.959,1140.758,411.928,1139.5Zm.572,11h-1v-1h1Zm5-3v-2.89a1.112,1.112,0,0,1,1.111-1.11h2.778a1.112,1.112,0,0,1,1.111,1.11v2.89Zm11,3h-1v-1h1Z" transform="translate(-408.405 -1128.5)" fill="#84c9c2"/>
    <circle id="Ellipse_419" data-name="Ellipse 419" cx="1" cy="1" r="1" transform="translate(3.595 13.5)" fill="#84c9c2"/>
    <circle id="Ellipse_420" data-name="Ellipse 420" cx="1" cy="1" r="1" transform="translate(17.595 13.5)" fill="#84c9c2"/>
  </g>
</svg>
