<svg id="ic_fac_eldtoilet" xmlns="http://www.w3.org/2000/svg" width="32" height="32" viewBox="0 0 32 32">
  <rect id="Rectangle_2454" data-name="Rectangle 2454" width="32" height="32" fill="none"/>
  <path id="Path_3037" data-name="Path 3037" d="M-44.48,1085.922a6.3,6.3,0,0,1-1.1-.1,6.4,6.4,0,0,1-5.175-7.405,6.394,6.394,0,0,1,4.681-5.066.8.8,0,0,1,.973.574.8.8,0,0,1-.574.973,4.79,4.79,0,0,0-3.508,3.8,4.76,4.76,0,0,0,.789,3.581,4.759,4.759,0,0,0,3.093,1.972,4.784,4.784,0,0,0,5.249-2.888.8.8,0,0,1,1.041-.44.8.8,0,0,1,.44,1.04A6.391,6.391,0,0,1-44.48,1085.922Z" transform="translate(59 -1059.822)" fill="#84c9c2"/>
  <g id="Group_2210" data-name="Group 2210" transform="translate(-689 -3721)">
    <g id="ramp" transform="translate(701.82 3730.25)">
      <path id="Path_3032" data-name="Path 3032" d="M-42.015,1079.231a.8.8,0,0,1-.8-.743l-.458-6.569a.8.8,0,0,1,.741-.853.809.809,0,0,1,.852.742l.458,6.569a.8.8,0,0,1-.741.852Z" transform="translate(44.652 -1068.617)" fill="#84c9c2"/>
      <path id="Path_3033" data-name="Path 3033" d="M-36.393,1081.864a.766.766,0,0,1-.141-.013l-5.5-.976a.8.8,0,0,1-.648-.926.8.8,0,0,1,.926-.646l5.5.975a.8.8,0,0,1,.648.926A.8.8,0,0,1-36.393,1081.864Z" transform="translate(44.536 -1070.274)" fill="#84c9c2"/>
      <path id="Path_3034" data-name="Path 3034" d="M-33.533,1086.426a.8.8,0,0,1-.756-.541l-1.472-4.316a.8.8,0,0,1,.5-1.014.8.8,0,0,1,1.013.5l1.473,4.317a.8.8,0,0,1-.5,1.013A.786.786,0,0,1-33.533,1086.426Z" transform="translate(43.148 -1070.52)" fill="#84c9c2"/>
      <path id="Path_3035" data-name="Path 3035" d="M-38.253,1077.472a.766.766,0,0,1-.141-.013l-3.931-.7a.8.8,0,0,1-.647-.925.8.8,0,0,1,.926-.647l3.931.7a.8.8,0,0,1,.647.926A.8.8,0,0,1-38.253,1077.472Z" transform="translate(44.594 -1069.445)" fill="#84c9c2"/>
      <path id="Path_3036" data-name="Path 3036" d="M-43,1071.993a2.026,2.026,0,0,1-.352-.031,1.983,1.983,0,0,1-1.288-.822,1.983,1.983,0,0,1-.329-1.493,2,2,0,0,1,2.314-1.616,1.981,1.981,0,0,1,1.287.822,1.98,1.98,0,0,1,.33,1.492h0a1.991,1.991,0,0,1-.822,1.288A1.983,1.983,0,0,1-43,1071.993Zm0-2.4a.4.4,0,0,0-.393.33.4.4,0,0,0,.065.3.4.4,0,0,0,.258.165.4.4,0,0,0,.3-.066.394.394,0,0,0,.164-.258h0a.4.4,0,0,0-.066-.3.393.393,0,0,0-.257-.164A.422.422,0,0,0-43,1069.6Z" transform="translate(45 -1067.999)" fill="#84c9c2"/>
    </g>
    <path id="Path_3082" data-name="Path 3082" d="M9115,9545.1v-22.85h24.75v22.85" transform="translate(-8423 -5798)" fill="none" stroke="#84c9c2" stroke-linejoin="round" stroke-width="2"/>
  </g>
</svg>
