<svg id="ic_fac_pet" xmlns="http://www.w3.org/2000/svg" width="32" height="32" viewBox="0 0 32 32">
  <rect id="Rectangle_2444" data-name="Rectangle 2444" width="32" height="32" fill="none"/>
  <g id="Component_65_1" data-name="Component 65 – 1" transform="translate(4 4)">
    <circle id="Ellipse_417" data-name="Ellipse 417" cx="1" cy="1" r="1" transform="translate(7.5 8.498)" fill="#84c9c2"/>
    <circle id="Ellipse_418" data-name="Ellipse 418" cx="1" cy="1" r="1" transform="translate(14.5 8.498)" fill="#84c9c2"/>
    <path id="Path_3042" data-name="Path 3042" d="M885.929,244.019a34.486,34.486,0,0,1-3.288-2.087c-.049-.046-.092-.1-.142-.141a8.943,8.943,0,0,0-1.1-.822c-.066-.059-.145-.124-.2-.176a.97.97,0,0,0-.554-.263,9.055,9.055,0,0,0-5.184-.972,8.8,8.8,0,0,0-3.134.974.972.972,0,0,0-.542.261c-.052.052-.131.117-.2.175a9.094,9.094,0,0,0-1.191.93,34.739,34.739,0,0,1-3.335,2.121,4.759,4.759,0,0,0-2.571,4.258V261.5a1,1,0,0,0,1,1h.295a4.742,4.742,0,0,0,4.705-4.767V259.5a4.025,4.025,0,0,0,2.562,3.733,2.437,2.437,0,0,0,.884.164,2.62,2.62,0,0,0,1.847-.776,1,1,0,0,1,1.414,0,2.569,2.569,0,0,0,2.732.612A4.025,4.025,0,0,0,882.5,259.5v-1.767a4.742,4.742,0,0,0,4.705,4.767h.295a1,1,0,0,0,1-1V248.277A4.759,4.759,0,0,0,885.929,244.019ZM866.5,260.4V248.277a2.763,2.763,0,0,1,1.391-2.413,8.842,8.842,0,0,0-.322,1.5,9.064,9.064,0,0,0,.931,5.221v5.144A2.762,2.762,0,0,1,866.5,260.4Zm15.262-7.295a4.861,4.861,0,0,0-1.262,3.183V259.5a2.014,2.014,0,0,1-1.28,1.867.583.583,0,0,1-.6-.16,3.072,3.072,0,0,0-4.242,0,.582.582,0,0,1-.6.16A2.013,2.013,0,0,1,872.5,259.5v-3.264a4.689,4.689,0,0,0-1.236-3.095,6.97,6.97,0,0,1,.39-9.678c.414-.3.8-.59,1.114-.86a6.856,6.856,0,0,1,2.923-1.058,7.512,7.512,0,0,1,.817-.045,6.908,6.908,0,0,1,3.622,1.011c.339.3.758.622,1.225.959a6.976,6.976,0,0,1,.407,9.64ZM886.5,260.4a2.762,2.762,0,0,1-2-2.672V252.6a8.884,8.884,0,0,0,.594-6.75,2.765,2.765,0,0,1,1.406,2.424Z" transform="translate(-864.5 -239.502)" fill="#84c9c2"/>
    <path id="Path_3043" data-name="Path 3043" d="M876.5,253.5a3,3,0,0,0-3,3v1a1,1,0,0,0,1,1h4a1,1,0,0,0,1-1v-1A3,3,0,0,0,876.5,253.5Zm-1,3a1,1,0,0,1,2,0Z" transform="translate(-864.5 -239.502)" fill="#84c9c2"/>
  </g>
</svg>
