<svg id="ic_fac_wheelchair" xmlns="http://www.w3.org/2000/svg" width="32" height="32" viewBox="0 0 32 32">
  <rect id="Rectangle_2445" data-name="Rectangle 2445" width="32" height="32" fill="none"/>
  <g id="Component_66_1" data-name="Component 66 – 1" transform="translate(5 4)">
    <path id="Path_3039" data-name="Path 3039" d="M121.091,1146.546a1,1,0,0,0-1.2-.744l-19.853,4.677a1,1,0,0,0,.229,1.973,1.069,1.069,0,0,0,.23-.026l19.853-4.677A1,1,0,0,0,121.091,1146.546Z" transform="translate(-95.889 -1127.382)" fill="#84c9c2"/>
    <path id="Path_3040" data-name="Path 3040" d="M101.83,1132.36l2.064,7.2a.735.735,0,0,0,.035.076,1.151,1.151,0,0,0,.061.128,1.057,1.057,0,0,0,.218.271.978.978,0,0,0,.192.126.8.8,0,0,0,.1.055.986.986,0,0,0,.349.069h.035l6.406-.217,2.625,4.4a1,1,0,0,0,1.717-1.026l-2.928-4.9a.868.868,0,0,0-.076-.084,1.027,1.027,0,0,0-.168-.186c-.028-.021-.058-.036-.088-.055a.908.908,0,0,0-.256-.12,1.141,1.141,0,0,0-.129-.018.789.789,0,0,0-.175-.023l-6.215.211-.568-1.982,3.717-.127a1,1,0,0,0,.965-1.033.959.959,0,0,0-1.033-.965l-4.217.144-.743-2.595a2.482,2.482,0,0,0,.81-1.91h0a2.5,2.5,0,0,0-5,.17A2.5,2.5,0,0,0,101.83,1132.36Zm.187-2.98h.017a.5.5,0,0,1,.017,1,.487.487,0,0,1-.517-.483A.5.5,0,0,1,102.017,1129.38Z" transform="translate(-95.889 -1127.382)" fill="#84c9c2"/>
    <path id="Path_3041" data-name="Path 3041" d="M104.161,1148.317a8,8,0,0,0,7.58-6.551,1,1,0,1,0-1.969-.35,5.992,5.992,0,1,1-8.571-6.456,1,1,0,1,0-.891-1.789,8,8,0,0,0,3.571,15.151C103.974,1148.322,104.068,1148.321,104.161,1148.317Z" transform="translate(-95.889 -1127.382)" fill="#84c9c2"/>
  </g>
</svg>
