<svg id="ic_fac_accom" xmlns="http://www.w3.org/2000/svg" width="32" height="32" viewBox="0 0 32 32">
  <rect id="Rectangle_2448" data-name="Rectangle 2448" width="32" height="32" fill="none"/>
  <g id="Component_69_1" data-name="Component 69 – 1" transform="translate(4 4)">
    <path id="Path_3056" data-name="Path 3056" d="M839.608,199.376l-2.1-1.462L837.5,193.5a2,2,0,0,0-2-2h-1a2,2,0,0,0-2,2v.931l-3.929-2.734a1,1,0,0,0-1.142,0l-11.022,7.67a1.993,1.993,0,0,0-.907,1.675V202.5a1,1,0,0,0,1,1h2v11a2,2,0,0,0,2,2h15a2,2,0,0,0,2-2v-11h2a1,1,0,0,0,1-1v-1.458A2,2,0,0,0,839.608,199.376ZM825.5,214.5v-9h5v9Zm13-13h-2a1,1,0,0,0-1,1v12h-3v-9a2,2,0,0,0-2-2h-5a2,2,0,0,0-2,2v9h-3v-12a1,1,0,0,0-1-1h-1.983l.008-.475L828,193.736l4.929,3.43a1,1,0,0,0,1.571-.821V193.5h1l.006,4.938a1,1,0,0,0,.429.82l2.539,1.767.025.017Z" transform="translate(-815.5 -191.5)" fill="#84c9c2"/>
  </g>
</svg>
