<svg xmlns="http://www.w3.org/2000/svg" width="32" height="32" viewBox="0 0 32 32">
    <defs>
        <style>.a,.b{fill:#fff;}.a{opacity:0.26;}</style>
    </defs>
    <circle class="a" cx="16" cy="16" r="16"/>
    <g transform="translate(943.006 -82.914) rotate(180)">
        <rect class="b" width="2" height="1" transform="translate(924.006 -106.914)"/>
        <rect class="b" width="3" height="2" transform="translate(924.006 -104.914)"/>
        <g transform="translate(921.376 -108.914)">
            <path class="b" d="M924.191-101.8v-5.926h5.926v2.963h2.963v2.963h1.185V-106.2l-2.718-2.718h-8.542v7.111Zm7.111-5.681,1.532,1.532H931.3Z" transform="translate(-923.006 108.914)"/>
        </g>
        <path class="b" d="M933.7-94.914H920.31a1.3,1.3,0,0,0-1.3,1.3v5.1a1.3,1.3,0,0,0,1.3,1.3H933.7a1.3,1.3,0,0,0,1.3-1.3v-5.1A1.3,1.3,0,0,0,933.7-94.914Zm-1.067,4.148a1.185,1.185,0,0,1-1.185-1.185,1.185,1.185,0,0,1,1.185-1.185,1.185,1.185,0,0,1,1.185,1.185A1.186,1.186,0,0,1,932.636-90.766Z" transform="translate(0 -5.704)"/>
    </g>
</svg>