<svg id="ic_gift" xmlns="http://www.w3.org/2000/svg" width="60" height="60" viewBox="0 0 60 60">
  <rect id="Rectangle_2316" data-name="Rectangle 2316" width="60" height="60" rx="20" transform="translate(60) rotate(90)" fill="#fff"/>
  <rect id="Rectangle_2317" data-name="Rectangle 2317" width="25" height="5" transform="translate(20 21)" fill="#d4e8dc"/>
  <path id="Path_2913" data-name="Path 2913" d="M941.915,1018.579a1.872,1.872,0,0,0-1.87-1.87H928.139l4.422-2.211a3.4,3.4,0,1,0-4.783-3.972l-1.289,4.511-1.289-4.511a3.395,3.395,0,1,0-4.783,3.972l4.422,2.211H913.87a1.872,1.872,0,0,0-1.87,1.87v4.363h2.493v13.088a1.872,1.872,0,0,0,1.87,1.87h21.19a1.872,1.872,0,0,0,1.87-1.87v-13.088h2.493Zm-12.938-7.711a2.122,2.122,0,0,1,1.525-1.486,2.119,2.119,0,0,1,2.06.567,2.142,2.142,0,0,1-.557,3.433l-4.37,2.185Zm-9.159.94a2.16,2.16,0,0,1,2.115-2.5,2.153,2.153,0,0,1,.546.071,2.122,2.122,0,0,1,1.525,1.486l1.342,4.7-4.37-2.185A2.122,2.122,0,0,1,919.818,1011.808Zm-6.571,9.887v-3.116a.625.625,0,0,1,.623-.623h11.841v3.739H913.246Zm2.493,14.334v-13.088h9.972v13.711h-9.349A.625.625,0,0,1,915.739,1036.03Zm22.436,0a.625.625,0,0,1-.623.623H926.957v-13.711h11.218Zm2.493-14.334H926.957v-3.739h13.088a.625.625,0,0,1,.623.623Z" transform="translate(-897 -993.963)" fill="#090909"/>
</svg>
