<svg xmlns="http://www.w3.org/2000/svg" width="20" height="23" viewBox="0 0 20 23">
  <g id="ic_list_delete" transform="translate(-1370.006 -700.086)">
    <path id="Path_3030" data-name="Path 3030" d="M1386.006,720.086a1,1,0,0,1-1,1h-10a1,1,0,0,1-1-1v-14h-2v14a3,3,0,0,0,3,3h10a3,3,0,0,0,3-3v-14h-2Z" fill="#b8b6b6"/>
    <path id="Path_3031" data-name="Path 3031" d="M1385.006,702.086a2,2,0,0,0-2-2h-6a2,2,0,0,0-2,2v1h-5v2h20v-2h-5Zm-8,0h6v1h-6Z" fill="#b8b6b6"/>
    <rect id="Rectangle_2386" data-name="Rectangle 2386" width="2" height="12" transform="translate(1379.006 707.086)" fill="#b8b6b6"/>
    <rect id="Rectangle_2387" data-name="Rectangle 2387" width="2" height="12" transform="translate(1376.006 707.086)" fill="#b8b6b6"/>
    <rect id="Rectangle_2388" data-name="Rectangle 2388" width="2" height="12" transform="translate(1382.006 707.086)" fill="#b8b6b6"/>
  </g>
</svg>
