<svg xmlns="http://www.w3.org/2000/svg" width="140" height="41.261" viewBox="0 0 140 41.261">
    <defs>
        <style>.a{fill:none;}.b{fill:#fff;}</style>
    </defs>
    <rect class="a" width="140" height="41" transform="translate(0 0.154)"/>
    <g transform="translate(-516.389 136.732)">
        <g transform="translate(518.001 -136.732)">
            <path class="b" d="M807.768-129.141a10,10,0,0,1,1.8,6,8.748,8.748,0,0,1-1.819,5.786,9.4,9.4,0,0,1-3,2.239,8.753,8.753,0,0,1,4.539,3.466,10.4,10.4,0,0,1,1.53,5.759,11.477,11.477,0,0,1-1.75,6.265,10.831,10.831,0,0,1-2.781,3.092,10.833,10.833,0,0,1-4.44,1.973,27.24,27.24,0,0,1-5.552.534h-9.938a7.768,7.768,0,0,1-7.768-7.768v-31.528h18.99Q804.772-133.22,807.768-129.141ZM786.432-126.5v8.664h9.551a7.9,7.9,0,0,0,4.156-.973,3.715,3.715,0,0,0,1.595-3.453,3.519,3.519,0,0,0-2.111-3.625,14.774,14.774,0,0,0-4.642-.613Zm0,15.169v10.477h9.54a9.284,9.284,0,0,0,3.981-.693q2.58-1.279,2.581-4.905a4.22,4.22,0,0,0-2.5-4.212,9.928,9.928,0,0,0-3.925-.666Z" transform="translate(-734.385 134.308)"/>
            <path class="b" d="M742.863-103.808a12.591,12.591,0,0,1-7.426,2.4,12.636,12.636,0,0,1-7.356-2.362,12.543,12.543,0,0,1-3.762-4.216,12.652,12.652,0,0,1-1.585-6.138,12.577,12.577,0,0,1,1.529-6.026A12.72,12.72,0,0,1,728-124.4a12.586,12.586,0,0,1,7.441-2.418,12.589,12.589,0,0,1,7.51,2.475l.046.034a6.954,6.954,0,0,0,8.744-.243l.972-.852a19.263,19.263,0,0,0-1.345-1.824l-.707-.806a18.019,18.019,0,0,0-1.67-1.627,20.488,20.488,0,0,0-13.55-5.078,20.4,20.4,0,0,0-13.481,5.036,6.872,6.872,0,0,0-.678.608,19.9,19.9,0,0,0-2.5,2.843c-.2.254-.383.523-.552.792a20.384,20.384,0,0,0-3.409,11.345,20.486,20.486,0,0,0,3.466,11.443,19.579,19.579,0,0,0,1.9,2.433,20.293,20.293,0,0,0,1.853,1.8,20.5,20.5,0,0,0,13.409,4.965,20.556,20.556,0,0,0,13.479-5.007,20.566,20.566,0,0,0,3.735-4.243l-.956-.839a7.015,7.015,0,0,0-8.786-.27Z" transform="translate(-714.814 134.743)"/>
            <path class="b" d="M863.8-133.326H828.671a6.973,6.973,0,0,0,6.974,6.973h8.995V-94.03a8.266,8.266,0,0,0,8.265-8.265v-24.058h7.762a6.973,6.973,0,0,0,6.974-6.973Z" transform="translate(-749.752 134.308)"/>
        </g>
    </g>
</svg>