<svg id="ic_mytrip" xmlns="http://www.w3.org/2000/svg" width="48" height="48" viewBox="0 0 48 48">
  <circle id="Ellipse_363" data-name="Ellipse 363" cx="24" cy="24" r="24" fill="#d4e8dc"/>
  <g id="pin" transform="translate(-491.5 -492.5)">
    <path id="Path_2880" data-name="Path 2880" d="M516,528.058a2,2,0,0,1-1.458-.635c-2.421-2.593-8.051-9.2-8.041-14.492a9.5,9.5,0,0,1,19,0c0,5.264-5.623,11.885-8.041,14.487a2,2,0,0,1-1.459.638Zm0-22.558a7.475,7.475,0,0,0-7.5,7.433c-.009,4.712,5.74,11.238,7.5,13.126,1.753-1.9,7.5-8.444,7.5-13.126A7.475,7.475,0,0,0,516,505.5Z" fill="#fff"/>
    <path id="Path_2881" data-name="Path 2881" d="M516,518.067a5,5,0,1,1,5-5A5.006,5.006,0,0,1,516,518.067Zm0-8a3,3,0,1,0,3,3A3,3,0,0,0,516,510.067Z" fill="#fff"/>
  </g>
</svg>
