<svg id="ic_more_w" xmlns="http://www.w3.org/2000/svg" width="18" height="18" viewBox="0 0 18 18">
  <rect id="Rectangle_2523" data-name="Rectangle 2523" width="18" height="18" fill="none"/>
  <path id="Union_2" data-name="Union 2" d="M-833.625-5789.412a.644.644,0,0,1-.191-.459.643.643,0,0,1,.191-.458l2.633-2.632h-8.359a.648.648,0,0,1-.649-.649.649.649,0,0,1,.649-.649h8.36l-2.634-2.634a.636.636,0,0,1-.191-.457.638.638,0,0,1,.191-.458.644.644,0,0,1,.915,0l3.742,3.739h0a.646.646,0,0,1,.19.458.647.647,0,0,1-.1.349l0,0,0,.007-.007.01h0a.658.658,0,0,1-.09.1l-3.726,3.725a.645.645,0,0,1-.458.19A.641.641,0,0,1-833.625-5789.412Z" transform="translate(842.635 5803.195)" fill="#fff"/>
</svg>
