<svg id="ic_outstanding" xmlns="http://www.w3.org/2000/svg" width="60" height="60" viewBox="0 0 60 60">
  <rect id="Rectangle_2318" data-name="Rectangle 2318" width="60" height="60" rx="20" transform="translate(60) rotate(90)" fill="#fff"/>
  <circle id="Ellipse_379" data-name="Ellipse 379" cx="4.5" cy="4.5" r="4.5" transform="translate(28 20)" fill="#d4e8dc"/>
  <g id="Group_2041" data-name="Group 2041" transform="translate(-752.824 -944)">
    <path id="Path_2915" data-name="Path 2915" d="M782.215,982.43a11.215,11.215,0,1,1,11.215-11.215A11.228,11.228,0,0,1,782.215,982.43Zm0-21.111a9.9,9.9,0,1,0,9.9,9.9A9.906,9.906,0,0,0,782.215,961.319Z" transform="translate(0.056)" fill="#090909"/>
    <path id="Path_2916" data-name="Path 2916" d="M780.937,975.875a5.938,5.938,0,1,1,5.938-5.937A5.945,5.945,0,0,1,780.937,975.875Zm0-10.556a4.618,4.618,0,1,0,4.618,4.618A4.623,4.623,0,0,0,780.937,965.319Z" transform="translate(1.334 1.278)" fill="#090909"/>
    <path id="Path_2917" data-name="Path 2917" d="M777.379,987.106h-.034a.661.661,0,0,1-.583-.424l-1.542-4.062-3.642.522a.66.66,0,0,1-.685-.949l3.958-7.917,1.181.591-3.395,6.789,2.917-.418a.671.671,0,0,1,.71.418l1.2,3.157,3.986-7.9,1.178.6-4.66,9.236A.661.661,0,0,1,777.379,987.106Z" transform="translate(0 4.56)" fill="#090909"/>
    <path id="Path_2918" data-name="Path 2918" d="M784.752,987.106a.661.661,0,0,1-.591-.367l-4.578-9.236,1.181-.586,3.923,7.91,1.264-3.181a.678.678,0,0,1,.707-.409l2.917.418-3.4-6.789,1.181-.591,3.958,7.917a.665.665,0,0,1-.055.682.677.677,0,0,1-.629.266l-3.65-.524-1.619,4.073a.663.663,0,0,1-.586.416Z" transform="translate(2.798 4.56)" fill="#090909"/>
  </g>
</svg>
