<svg id="ic_practice" xmlns="http://www.w3.org/2000/svg" width="60" height="60" viewBox="0 0 60 60">
  <rect id="Rectangle_2319" data-name="Rectangle 2319" width="60" height="60" rx="20" transform="translate(60) rotate(90)" fill="#fff"/>
  <path id="Path_2927" data-name="Path 2927" d="M974.182,268a.592.592,0,0,1-.528-.326c-.542-1.085-2.237-2.56-4.2-4.269-4.2-3.654-9.423-8.2-9.456-13.72a7.562,7.562,0,0,1,2.218-5.413,7.689,7.689,0,0,1,11.964,1.319,7.68,7.68,0,0,1,14.182,4.09v.012c-.111,5.52-5.3,10.058-9.468,13.706-1.954,1.71-3.642,3.186-4.186,4.275A.592.592,0,0,1,974.182,268Zm-6.5-24.818a6.479,6.479,0,0,0-4.626,1.924,6.4,6.4,0,0,0-1.874,4.572c.03,4.984,5.031,9.338,9.049,12.836a30.924,30.924,0,0,1,3.951,3.8,30.9,30.9,0,0,1,3.937-3.809c3.992-3.492,8.959-7.837,9.063-12.833a6.5,6.5,0,0,0-12.459-2.588.615.615,0,0,1-1.083,0A6.5,6.5,0,0,0,967.682,243.182Zm20.091,6.5h0Z" transform="translate(-945 -223)" fill="#090909"/>
</svg>
