<svg id="ic_profile_tel" xmlns="http://www.w3.org/2000/svg" width="24" height="24" viewBox="0 0 24 24">
  <rect id="Rectangle_2530" data-name="Rectangle 2530" width="24" height="24" fill="none"/>
  <g id="Component_29_4" data-name="Component 29 – 4" transform="translate(4 5)">
    <path id="Path_2864" data-name="Path 2864" d="M1524.065,546.059c-1.115,0-3.957-.548-7.125-3.687-2.9-2.9-3.957-5.089-3.652-7.559a3.99,3.99,0,0,1,1.422-2.653,1.729,1.729,0,0,1,1.237-.546,1.79,1.79,0,0,1,1.275.512l1.992,1.992a1.637,1.637,0,0,1,.519,1.219,2.951,2.951,0,0,1-1.159,1.935,8.657,8.657,0,0,0,3.482,3.477l.621-.622a1.741,1.741,0,0,1,1.268-.546h0a1.675,1.675,0,0,1,1.229.536l2,1.964,0,0a1.779,1.779,0,0,1-.034,2.512,4,4,0,0,1-2.67,1.424A1.774,1.774,0,0,1,1524.065,546.059Zm-8.083-12.993a.237.237,0,0,0-.225.1,2.636,2.636,0,0,0-1.026,1.808c-.245,1.987.693,3.827,3.234,6.369,3.513,3.481,6.3,3.248,6.32,3.241a2.641,2.641,0,0,0,1.836-1.013.341.341,0,0,0,.034-.458l-2.022-1.988c-.078-.084-.192-.124-.188-.092a.3.3,0,0,0-.222.1l-1.032,1.033a.726.726,0,0,1-.864.122,10.646,10.646,0,0,1-4.807-4.8.725.725,0,0,1,.135-.882l.229-.209c.289-.261.89-.8.9-1.093,0-.039-.03-.091-.094-.155l-1.992-1.991A.3.3,0,0,0,1515.982,533.066Z" transform="translate(-1513.238 -531.615)" fill="#c4e6d2"/>
  </g>
</svg>
