<svg xmlns="http://www.w3.org/2000/svg" width="25" height="18.594" viewBox="0 0 25 18.594">
  <g id="ic_review_cost" transform="translate(0 0)">
    <path id="Path_2932" data-name="Path 2932" d="M917.354,886.8a10.367,10.367,0,0,1-4.774-1.115,2.009,2.009,0,0,1-1.08-1.784V872.09a1.983,1.983,0,0,1,.858-1.635,2.054,2.054,0,0,1,1.9-.217c3.054,1.176,6.168.266,9.467-.7,3.782-1.1,7.691-2.246,11.7-.222a2.009,2.009,0,0,1,1.08,1.784V882.91a1.983,1.983,0,0,1-.858,1.635,2.048,2.048,0,0,1-1.9.217c-3.054-1.176-6.168-.266-9.467.7A25.091,25.091,0,0,1,917.354,886.8Zm-3.82-14.692L913.5,883.9c3.286,1.666,6.653.684,10.22-.358,3.47-1.015,7.06-2.063,10.746-.645h0c.029.011.043,0,.044,0L934.5,871.1c-3.287-1.666-6.653-.684-10.22.358C920.81,872.475,917.22,873.524,913.534,872.1Z" transform="translate(-911.5 -868.204)" fill="#009687"/>
    <path id="Path_2933" data-name="Path 2933" d="M923.5,882a4.5,4.5,0,1,1,4.5-4.5A4.505,4.505,0,0,1,923.5,882Zm0-7a2.5,2.5,0,1,0,2.5,2.5A2.5,2.5,0,0,0,923.5,875Z" transform="translate(-911.5 -868.204)" fill="#009687"/>
  </g>
</svg>
