<svg id="ic_review_noti" xmlns="http://www.w3.org/2000/svg" width="34.5" height="27.337" viewBox="0 0 34.5 27.337">
  <path id="Path_2934" data-name="Path 2934" d="M678.359,554.5H651.141a3.644,3.644,0,0,0-3.641,3.641v14.326a3.645,3.645,0,0,0,3.641,3.641h24.887l4.605,5.455a.775.775,0,0,0,1.368-.5V558.141A3.644,3.644,0,0,0,678.359,554.5Zm2.09,24.442-3.469-4.11a.776.776,0,0,0-.592-.275H651.141a2.093,2.093,0,0,1-2.09-2.09V558.141a2.092,2.092,0,0,1,2.09-2.09h27.219a2.092,2.092,0,0,1,2.09,2.09Z" transform="translate(-647.5 -554.5)" fill="#009687"/>
  <path id="Path_2935" data-name="Path 2935" d="M670.163,560A1.166,1.166,0,0,0,669,561.163v6.2a1.163,1.163,0,1,0,2.326,0v-6.2A1.166,1.166,0,0,0,670.163,560Z" transform="translate(-652.332 -555.736)" fill="#009687"/>
  <circle id="Ellipse_382" data-name="Ellipse 382" cx="1.163" cy="1.163" r="1.163" transform="translate(16.668 13.567)" fill="#009687"/>
</svg>
