<svg id="ic_search" xmlns="http://www.w3.org/2000/svg" width="24" height="24" viewBox="0 0 24 24">
  <path id="Path_231" data-name="Path 231" d="M921.855,502.315a10.171,10.171,0,0,1,0-20.342h0a10.171,10.171,0,1,1,0,20.342Zm0-18.057a7.749,7.749,0,0,0-5.561,2.33s-.005,0-.007.006a7.807,7.807,0,1,0,5.568-2.336Z" transform="translate(-911.704 -481.973)" fill="#d2d2d2"/>
  <path id="Path_232" data-name="Path 232" d="M985.432,556.96a1.14,1.14,0,0,1-.806-.331l-6.247-6.012a1.143,1.143,0,0,1,1.612-1.622l6.246,6.012a1.143,1.143,0,0,1-.805,1.954Z" transform="translate(-962.574 -532.96)" fill="#d2d2d2"/>
</svg>
