<svg id="ic_travellinks" xmlns="http://www.w3.org/2000/svg" width="60" height="60" viewBox="0 0 60 60">
  <rect id="Rectangle_2321" data-name="Rectangle 2321" width="60" height="60" rx="20" transform="translate(60) rotate(90)" fill="#fff"/>
  <rect id="Rectangle_2322" data-name="Rectangle 2322" width="13" height="13" rx="6" transform="translate(19 24)" fill="#d4e8dc"/>
  <g id="Group_2045" data-name="Group 2045" transform="translate(-1617 -491.505)">
    <path id="Path_2925" data-name="Path 2925" d="M1660.694,531.505h-26.781a1.915,1.915,0,0,1-1.913-1.913v-15.3a1.915,1.915,0,0,1,1.913-1.913h4.238a.631.631,0,0,0,.59-.4l1.912-4.775a1.9,1.9,0,0,1,1.775-1.2h9.75a1.9,1.9,0,0,1,1.776,1.2l1.909,4.773h0a.631.631,0,0,0,.59.4h4.238a1.915,1.915,0,0,1,1.913,1.913v15.3A1.915,1.915,0,0,1,1660.694,531.505Zm-26.781-17.854a.639.639,0,0,0-.637.638v15.3a.639.639,0,0,0,.637.638h26.781a.639.639,0,0,0,.637-.638v-15.3a.639.639,0,0,0-.637-.638h-4.238a1.9,1.9,0,0,1-1.776-1.2l-1.909-4.773a.634.634,0,0,0-.592-.4h-9.75a.632.632,0,0,0-.591.4l-1.912,4.775a1.9,1.9,0,0,1-1.775,1.2Z" fill="#090909"/>
    <path id="Path_2926" data-name="Path 2926" d="M1645.652,526.3a7.652,7.652,0,1,1,7.652-7.652A7.659,7.659,0,0,1,1645.652,526.3Zm0-14.028a6.376,6.376,0,1,0,6.376,6.376A6.384,6.384,0,0,0,1645.652,512.275Z" transform="translate(1.652 1.376)" fill="#090909"/>
  </g>
</svg>
