<svg id="ic_textbox_hidepassword_press" xmlns="http://www.w3.org/2000/svg" width="24" height="24" viewBox="0 0 24 24">
  <rect id="Rectangle_1493" data-name="Rectangle 1493" width="24" height="24" fill="none"/>
  <g id="Group_695" data-name="Group 695" transform="translate(3.869 7)">
    <path id="Path_442" data-name="Path 442" d="M776.056,1082.715a8.561,8.561,0,0,1-8.015-5.517.74.74,0,0,1,0-.533,8.6,8.6,0,0,1,2.99-3.9.743.743,0,0,1,.864,1.209,4.2,4.2,0,1,0,4.162,7.254,7,7,0,0,0,4.155-1.342.743.743,0,1,1,.876,1.2A8.474,8.474,0,0,1,776.056,1082.715Zm6.321-3.247a.743.743,0,0,1-.594-1.188,4.042,4.042,0,0,0-5.727-5.686,6.84,6.84,0,0,0-1.964.279.743.743,0,0,1-.426-1.423,8.359,8.359,0,0,1,2.389-.341,8.552,8.552,0,0,1,8.017,5.553.746.746,0,0,1,0,.537,8.424,8.424,0,0,1-1.1,1.97A.739.739,0,0,1,782.377,1079.468Z" transform="translate(-767.99 -1070.97)" fill="#80bd01"/>
    <path id="Path_443" data-name="Path 443" d="M803.073,1099.829a3.181,3.181,0,0,1-3.2-3.16,3.258,3.258,0,0,1,.667-1.965.742.742,0,0,1,1.188.89,1.8,1.8,0,0,0-.369,1.075,1.7,1.7,0,0,0,1.71,1.675,1.746,1.746,0,0,0,1.357-.658.743.743,0,1,1,1.154.935A3.225,3.225,0,0,1,803.073,1099.829Z" transform="translate(-795.007 -1090.71)" fill="#80bd01"/>
    <path id="Path_444" data-name="Path 444" d="M786.052,1082.082a.733.733,0,0,1-.453-.155l-13.47-10.4a.742.742,0,0,1,.907-1.176l13.47,10.4a.742.742,0,0,1-.453,1.33Z" transform="translate(-771.251 -1070.199)" fill="#80bd01"/>
    <path id="Path_445" data-name="Path 445" d="M820.07,1091.234a.743.743,0,0,1-.67-.421,1.833,1.833,0,0,0-1.453-1.034.742.742,0,0,1-.653-.822.754.754,0,0,1,.822-.653,3.314,3.314,0,0,1,2.624,1.867.743.743,0,0,1-.349.991A.751.751,0,0,1,820.07,1091.234Z" transform="translate(-809.759 -1085.534)" fill="#80bd01"/>
  </g>
</svg>
