<svg id="ic_textbox_showpassword_press" xmlns="http://www.w3.org/2000/svg" width="24" height="24" viewBox="0 0 24 24">
  <rect id="Rectangle_1494" data-name="Rectangle 1494" width="24" height="24" fill="none"/>
  <g id="Group_1326" data-name="Group 1326" transform="translate(3.869 7)">
    <path id="Path_440" data-name="Path 440" d="M632.462,1082.715a8.56,8.56,0,0,1-8.015-5.517.741.741,0,0,1,0-.536,8.562,8.562,0,0,1,16.033,0,.743.743,0,0,1,0,.536A8.559,8.559,0,0,1,632.462,1082.715Zm-6.521-5.787a7.073,7.073,0,1,0,6.521-4.334A7.078,7.078,0,0,0,625.941,1076.928Z" transform="translate(-624.396 -1071.109)" fill="#80bd01"/>
    <path id="Path_441" data-name="Path 441" d="M659.478,1094.651a3.178,3.178,0,1,1,3.2-3.161A3.181,3.181,0,0,1,659.478,1094.651Zm0-4.871a1.693,1.693,0,1,0,1.71,1.71A1.712,1.712,0,0,0,659.478,1089.78Z" transform="translate(-651.412 -1085.67)" fill="#80bd01"/>
  </g>
</svg>
