<svg id="ic_trip_edit" xmlns="http://www.w3.org/2000/svg" width="24" height="24" viewBox="0 0 24 24">
  <rect id="Rectangle_2529" data-name="Rectangle 2529" width="24" height="24" fill="none"/>
  <g id="Component_63_13" data-name="Component 63 – 13" transform="translate(3.667 4.657)">
    <path id="Path_3069" data-name="Path 3069" d="M1565.322,779.737h0c-.009.009-.016.02-.024.03a.549.549,0,0,0-.041.051.5.5,0,0,0-.032.059c-.005.011-.012.021-.017.032a.517.517,0,0,0-.021.068c0,.01-.007.02-.009.031a.488.488,0,0,0-.007.076c0,.009,0,.017,0,.026v2.771a.527.527,0,0,0,.527.527h2.8a.531.531,0,0,0,.1-.01l.014,0a.526.526,0,0,0,.085-.026h0a.565.565,0,0,0,.169-.113l0,0h0l7.6-7.6a.528.528,0,0,0,0-.747l-2.8-2.771a.527.527,0,0,0-.743,0l-7.6,7.6Zm.9,1.636.988.979h-.988Zm5.308-6.353,2.029,2.046-5.07,5.07-2.047-2.029Zm1.769-1.769,2.046,2.029-1.041,1.041-2.029-2.047Z" transform="translate(-1561.43 -771.814)" fill="#c4e6d2"/>
    <path id="Path_3070" data-name="Path 3070" d="M1553.9,777.735a.7.7,0,0,0-.7.7v5.1a1.13,1.13,0,0,1-1.128,1.129h-10.206a1.143,1.143,0,0,1-1.128-1.129V773.368a1.142,1.142,0,0,1,1.128-1.128H1547a.7.7,0,0,0,0-1.406h-5.136a2.537,2.537,0,0,0-2.534,2.534V783.54a2.569,2.569,0,0,0,2.534,2.535h10.206a2.537,2.537,0,0,0,2.534-2.535v-5.1A.7.7,0,0,0,1553.9,777.735Z" transform="translate(-1539.325 -770.834)" fill="#c4e6d2"/>
  </g>
</svg>
