<svg xmlns="http://www.w3.org/2000/svg" width="24" height="24" viewBox="0 0 24 24">
    <defs>
        <style>.a,.e{fill:none;}.a{stroke:#f9f9f9;opacity:0.3;}.b{fill:#f9f9f9;}.c{fill:#555a56;}.d{stroke:none;}</style>
    </defs>
    <g class="a">
        <rect class="d" width="24" height="24" rx="12"/>
        <rect class="e" x="0.5" y="0.5" width="23" height="23" rx="11.5"/>
    </g>
    <g transform="translate(-269.879 -2.741)">
        <path class="b" d="M319.383,19.8l-1.09-1.09a9.193,9.193,0,0,0-5.813-2.674V18.06a2.866,2.866,0,0,1,0,5.6v2.035a9.2,9.2,0,0,0,6-2.687l.9-.9A1.627,1.627,0,0,0,319.383,19.8Z" transform="translate(-29.98 -6.341)"/>
        <rect class="b" width="0.992" height="13.266" rx="0.496" transform="translate(281.508 7.875)"/>
        <path class="c" d="M280.784,23.6a2.863,2.863,0,0,1,0-5.294V16.166a9.185,9.185,0,0,0-5.527,2.645l-.9.9a1.627,1.627,0,0,0,0,2.3l1.09,1.09a9.189,9.189,0,0,0,5.34,2.625Z" transform="translate(0 -6.439)"/>
        <path class="c" d="M302.377,30.611a1.846,1.846,0,0,0,0,2.889Z" transform="translate(-21.592 -17.658)"/>
        <path class="b" d="M309.96,28.8v3.7a1.849,1.849,0,1,0,0-3.7Z" transform="translate(-28.023 -16.252)"/>
    </g>
</svg>