<svg xmlns="http://www.w3.org/2000/svg" xmlns:xlink="http://www.w3.org/1999/xlink" width="106" height="115.258" viewBox="0 0 106 115.258">
  <defs>
    <filter id="Path_2902" x="0" y="0" width="106" height="115.258" filterUnits="userSpaceOnUse">
      <feOffset dy="6" input="SourceAlpha"/>
      <feGaussianBlur stdDeviation="3" result="blur"/>
      <feFlood flood-opacity="0.271"/>
      <feComposite operator="in" in2="blur"/>
      <feComposite in="SourceGraphic"/>
    </filter>
  </defs>
  <g id="pin_accom" transform="translate(9 3)">
    <g id="Group_1989" data-name="Group 1989" transform="translate(-44 -881.001)">
      <g transform="matrix(1, 0, 0, 1, 35, 878)" filter="url(#Path_2902)">
        <path id="Path_2902-2" data-name="Path 2902" d="M304.679-204.1a44,44,0,0,0-44-44,44,44,0,0,0-44,44,44,44,0,0,0,37.854,43.563l6.146,9.694,6.147-9.694A44,44,0,0,0,304.679-204.1Z" transform="translate(-207.68 251.1)" fill="#fff"/>
      </g>
      <circle id="Ellipse_378" data-name="Ellipse 378" cx="37" cy="37" r="37" transform="translate(51 887.998)" fill="#009687"/>
    </g>
    <path id="Path_2984" data-name="Path 2984" d="M200.824-200.547v0a1.588,1.588,0,0,0-.038-.337l0-.013-2.852-12.488c0-.04.012-.079.012-.12v-2.443a7.058,7.058,0,0,0-7.05-7.05h-2.006a7.036,7.036,0,0,0-5.476,2.619A7.038,7.038,0,0,0,177.937-223h-2.007a7.058,7.058,0,0,0-7.049,7.05v2.443c0,.041.009.079.012.12L166.039-200.9l0,.013a1.584,1.584,0,0,0-.038.337v0h0v4.317a1.57,1.57,0,0,0,1.44,1.561v1.318a1.575,1.575,0,0,0,1.574,1.574,1.574,1.574,0,0,0,1.574-1.574v-1.305h25.648v1.305a1.575,1.575,0,0,0,1.574,1.574,1.574,1.574,0,0,0,1.574-1.574v-1.318a1.57,1.57,0,0,0,1.44-1.561v-4.317ZM169.148-197.8v-1.171h28.527v1.171Zm14.264-14.129h11.622l.641,2.8H171.149l.641-2.8Zm-13.864,9.81Zm19.34-17.729h2.006a3.906,3.906,0,0,1,3.9,3.9v.869h-9.809v-.869A3.906,3.906,0,0,1,188.888-219.852Zm-16.86,3.9a3.906,3.906,0,0,1,3.9-3.9h2.007a3.906,3.906,0,0,1,3.9,3.9v.869h-9.81Z" transform="translate(-139 250.629)" fill="#fff"/>
  </g>
</svg>
