<svg xmlns="http://www.w3.org/2000/svg" xmlns:xlink="http://www.w3.org/1999/xlink" width="106" height="115.258" viewBox="0 0 106 115.258">
  <defs>
    <filter id="Path_2902" x="0" y="0" width="106" height="115.258" filterUnits="userSpaceOnUse">
      <feOffset dy="6" input="SourceAlpha"/>
      <feGaussianBlur stdDeviation="3" result="blur"/>
      <feFlood flood-opacity="0.271"/>
      <feComposite operator="in" in2="blur"/>
      <feComposite in="SourceGraphic"/>
    </filter>
  </defs>
  <g id="pin_activity" transform="translate(9 3)">
    <g id="Group_1997" data-name="Group 1997" transform="translate(-650 -1671.003)">
      <g id="Group_1989" data-name="Group 1989" transform="translate(606 790.002)">
        <g transform="matrix(1, 0, 0, 1, 35, 878)" filter="url(#Path_2902)">
          <path id="Path_2902-2" data-name="Path 2902" d="M304.679-204.1a44,44,0,0,0-44-44,44,44,0,0,0-44,44,44,44,0,0,0,37.854,43.563l6.146,9.694,6.147-9.694A44,44,0,0,0,304.679-204.1Z" transform="translate(-207.68 251.1)" fill="#fff"/>
        </g>
        <circle id="Ellipse_378" data-name="Ellipse 378" cx="37" cy="37" r="37" transform="translate(51 887.998)" fill="#009687"/>
      </g>
    </g>
    <g id="Group_2104" data-name="Group 2104" transform="translate(29.61 28.978)">
      <path id="Path_2995" data-name="Path 2995" d="M199.912,450.032l.129-.191,4.38-4.482a.709.709,0,0,0-.384-1.075,4.631,4.631,0,0,1-1.839-1.055,4.3,4.3,0,0,1-.164-6.234,4.541,4.541,0,0,1,7.5,1.637.732.732,0,0,0,1.109.329l4.364-4.5.189-.134a.732.732,0,0,1,1,.013l5.061,4.769a.682.682,0,0,0,.719-.48,4.557,4.557,0,0,1,3.766-3.121,1.85,1.85,0,0,1,.661-.006c4.3.742,5.4,5.13,3.094,7.511a4.221,4.221,0,0,1-1.708,1.07.663.663,0,0,0-.431.773l5.091,4.8a.7.7,0,0,1,.037,1.007l-4.6,4.714-.082.062-.028.028a.729.729,0,0,1-1.216-.363,4.862,4.862,0,0,0-4-3.448,4.549,4.549,0,0,0-1.25.082,4.935,4.935,0,0,0-2.247,1.251,4.793,4.793,0,0,0-1.17,2.262,4.246,4.246,0,0,0-.03,1.229,4.845,4.845,0,0,0,3.689,3.769.711.711,0,0,1,.422,1.178l-.027.028-.061.085-4.586,4.728a.735.735,0,0,1-1.026.009l-5.107-4.782a.681.681,0,0,0-.767.459,4.134,4.134,0,0,1-1.013,1.726c-2.318,2.373-6.827,1.484-7.777-2.7a1.738,1.738,0,0,1-.023-.649,4.521,4.521,0,0,1,3-3.837.667.667,0,0,0,.455-.727l-5.076-4.753A.7.7,0,0,1,199.912,450.032Z" transform="translate(-199.739 -434.135)" fill="#fff"/>
    </g>
  </g>
</svg>
