<svg id="Layer_1" data-name="Layer 1" xmlns="http://www.w3.org/2000/svg" xmlns:xlink="http://www.w3.org/1999/xlink" viewBox="0 0 160 160"><defs><style>.cls-1{opacity:0.75;fill:url(#radial-gradient);}.cls-2{fill-opacity:0.1;}.cls-3{fill:url(#radial-gradient-2);}.cls-4{fill:url(#radial-gradient-3);}.cls-5{fill:url(#radial-gradient-4);}.cls-6{fill:url(#radial-gradient-5);}.cls-7{fill:url(#radial-gradient-6);}.cls-8{opacity:0.08;}.cls-8,.cls-9{isolation:isolate;}.cls-9{opacity:0.05;}</style><radialGradient id="radial-gradient" cx="-878.11" cy="-4775.76" r="218.05" gradientTransform="translate(381.54 758.79) scale(0.35 0.13)" gradientUnits="userSpaceOnUse"><stop offset="0.47" stop-opacity="0.8"/><stop offset="0.51" stop-opacity="0.65"/><stop offset="0.96" stop-opacity="0"/></radialGradient><radialGradient id="radial-gradient-2" cx="-711.04" cy="659.85" r="0.68" gradientTransform="matrix(90, 0, 0, -90, 64073.5, 59433.6)" gradientUnits="userSpaceOnUse"><stop offset="0.1" stop-color="#7fb3df"/><stop offset="0.9" stop-color="#0f5b94"/></radialGradient><radialGradient id="radial-gradient-3" cx="-711.04" cy="659.55" r="0.07" gradientTransform="matrix(90, 0, 0, -90, 64073.5, 59433.6)" gradientUnits="userSpaceOnUse"><stop offset="0" stop-color="#f6f0ee"/><stop offset="1" stop-color="#ddd"/></radialGradient><radialGradient id="radial-gradient-4" cx="-715.03" cy="660.02" r="0.34" gradientTransform="matrix(193, 0, 0, -127.18, 138083, 83940.67)" gradientUnits="userSpaceOnUse"><stop offset="0" stop-color="#f06b59"/><stop offset="1" stop-color="#df2227"/></radialGradient><radialGradient id="radial-gradient-5" cx="-713.85" cy="660.17" r="0.51" gradientTransform="matrix(149.98, 0, 0, -174, 107133.55, 114940)" gradientUnits="userSpaceOnUse"><stop offset="0.65" stop-color="#4cb749"/><stop offset="1" stop-color="#388b41"/></radialGradient><radialGradient id="radial-gradient-6" cx="-713.16" cy="660.18" r="0.54" gradientTransform="matrix(120.44, 0, 0, -161.32, 85998.7, 106574.15)" gradientUnits="userSpaceOnUse"><stop offset="0.6" stop-color="#fcd209"/><stop offset="0.7" stop-color="#f7c616"/><stop offset="1" stop-color="#bc821e"/></radialGradient></defs><path class="cls-1" d="M154.45,135.23c0,16.12-34.75,29.2-77.61,29.2S-.78,151.35-.78,135.23,34,106,76.84,106,154.45,119.1,154.45,135.23Z"/><path class="cls-2" d="M127.14,91.35a47.32,47.32,0,0,0-94.64,0H46a33.8,33.8,0,0,1,67.6,0"/><circle class="cls-3" cx="79.48" cy="77.56" r="30.42"/><path class="cls-4" d="M79.48,111A33.47,33.47,0,1,1,113,77.56,33.51,33.51,0,0,1,79.48,111Zm0-60.85a27.38,27.38,0,1,0,27.38,27.38A27.42,27.42,0,0,0,79.48,50.18Z"/><path class="cls-5" d="M147.42,44A75.72,75.72,0,0,0,17,35.24L47.37,88A33.82,33.82,0,0,1,79.14,44"/><path class="cls-6" d="M17,35.24A75.72,75.72,0,0,0,73.74,152.87l31.77-54.08A33.81,33.81,0,0,1,47.37,88"/><path class="cls-7" d="M73.74,152.87A75.71,75.71,0,0,0,147.42,44H79.14a33.8,33.8,0,0,1,26.37,54.76"/><path class="cls-8" d="M17,35.24,47.37,88a33.85,33.85,0,0,1,1.35-23L18.3,33.22"/><path class="cls-9" d="M73.74,152.87l31.77-54.08A33.76,33.76,0,0,1,85.9,110.28L72.38,152.87"/><path class="cls-9" d="M147.42,44H79.14a33.82,33.82,0,0,1,26.37,12.85l43.26-10.82"/></svg>