<svg id="Layer_1" data-name="Layer 1" xmlns="http://www.w3.org/2000/svg" viewBox="0 0 160 160"><defs><style>.cls-1{fill:#3078bb;}</style></defs><g id="Page-1"><path id="Microsoft-Edge-logo" class="cls-1" d="M37.34,47.16a92.2,92.2,0,0,0-26.12,25s2.46-30.83,26.12-48.86A63.57,63.57,0,0,1,76.9,10.17c6.5,0,20.13,1.13,32.41,8.7s17.23,13.9,22.76,23.18a53.17,53.17,0,0,1,5.54,14.12,113.07,113.07,0,0,1,2.55,20.42V91.23H52.43s-2.14,29.48,38.21,29.48c14,0,18.94-2.21,23.56-3.57a59.23,59.23,0,0,0,14.2-6.91v29.45S111.9,149.85,87,149.85a69.48,69.48,0,0,1-21.56-2.91c-6.24-2-19.31-7.48-28-20.28a59.43,59.43,0,0,1-8.11-16.43,58.07,58.07,0,0,1-1.77-16c0-12.73,4.35-24.89,11.9-33.68A64.76,64.76,0,0,1,61.5,44.2,45.67,45.67,0,0,0,55,54.74a47.94,47.94,0,0,0-3.16,11.72h49.54s2.89-29.6-28-29.6A73.69,73.69,0,0,0,37.34,47.16Z"/></g></svg>