<svg xmlns="http://www.w3.org/2000/svg" viewBox="0 0 220 146.81"><defs><style>.cls-1{fill:#ccc;}.cls-2{fill:#e6e6e6;}.cls-3{fill:#fff;}.cls-4{fill:#b3b3b3;}.cls-5{fill:#f7f7f7;}.cls-6,.cls-7{fill:#666;}.cls-7{fill-rule:evenodd;}.cls-8{fill:#d3465e;stroke:#666;stroke-miterlimit:10;stroke-width:4px;}</style></defs><g id="Layer_2" data-name="Layer 2"><g id="Layer_5" data-name="Layer 5"><path class="cls-1" d="M159.1,109H145.41a1.71,1.71,0,0,1,0-3.41H159.1a1.71,1.71,0,0,1,0,3.41Z"/><path class="cls-2" d="M180.83,85.48H170.21a1.7,1.7,0,1,1,0-3.4h10.62a1.7,1.7,0,0,1,0,3.4Z"/><path class="cls-2" d="M188.77,83.8a1.72,1.72,0,1,1-1.71-1.71A1.71,1.71,0,0,1,188.77,83.8Z"/><path class="cls-3" d="M138.62,49.22H128.23a1.22,1.22,0,0,1,0-2.43h10.39a1.22,1.22,0,1,1,0,2.43Z"/><path class="cls-3" d="M150.58,49.22h-5.17a1.22,1.22,0,1,1,0-2.43h5.17a1.22,1.22,0,1,1,0,2.43Z"/><path class="cls-3" d="M74.48,81.35H65a1.22,1.22,0,1,1,0-2.43h9.5a1.22,1.22,0,0,1,0,2.43Z"/><path class="cls-2" d="M86.4,40.47H64.26a1.7,1.7,0,0,1,0-3.4H86.4a1.7,1.7,0,1,1,0,3.4Z"/><path class="cls-4" d="M98.15,49.47h-18a1.46,1.46,0,0,1,0-2.92h18a1.46,1.46,0,0,1,0,2.92Z"/><path class="cls-3" d="M94,55.2H88.62a1.22,1.22,0,1,1,0-2.43H94a1.22,1.22,0,1,1,0,2.43Z"/><path class="cls-3" d="M114.94,55.2H100.32a1.22,1.22,0,1,1,0-2.43h14.62a1.22,1.22,0,1,1,0,2.43Z"/><path class="cls-2" d="M80.19,67.51H68.25a1.7,1.7,0,0,1,0-3.4H80.19a1.7,1.7,0,1,1,0,3.4Z"/><path class="cls-1" d="M122.51,105.88h-2.58a1.71,1.71,0,0,1,0-3.41h2.58a1.71,1.71,0,1,1,0,3.41Z"/><path class="cls-3" d="M192.88,32.63h-15.3a1.22,1.22,0,0,1,0-2.43h15.3a1.22,1.22,0,1,1,0,2.43Z"/><path class="cls-3" d="M23.65,62.42H15.49a1.7,1.7,0,0,1,0-3.4h8.16a1.7,1.7,0,1,1,0,3.4Z"/><path class="cls-3" d="M52.31,62.42H37A1.7,1.7,0,1,1,37,59h15.3a1.7,1.7,0,0,1,0,3.4Z"/><path class="cls-2" d="M50.24,95.81H47.66a1.22,1.22,0,1,1,0-2.43h2.58a1.22,1.22,0,1,1,0,2.43Z"/><path class="cls-2" d="M39,95.81H16.25a1.22,1.22,0,0,1,0-2.43H39a1.22,1.22,0,1,1,0,2.43Z"/><path class="cls-4" d="M201.9,106.1H185.05a1.7,1.7,0,1,1,0-3.4H201.9a1.7,1.7,0,1,1,0,3.4Z"/><path class="cls-1" d="M113.34,105.88h-8.19a1.71,1.71,0,0,1,0-3.41h8.19a1.71,1.71,0,0,1,0,3.41Z"/><path class="cls-2" d="M59.14,38.77A1.77,1.77,0,1,1,57.37,37,1.77,1.77,0,0,1,59.14,38.77Z"/><path class="cls-3" d="M198.16,31.42a1.11,1.11,0,1,1-1.11-1.11A1.1,1.1,0,0,1,198.16,31.42Z"/><path class="cls-3" d="M196.27,94.86h-6a1.7,1.7,0,0,1,0-3.4h6a1.7,1.7,0,0,1,0,3.4Z"/><circle class="cls-3" cx="202.06" cy="93.16" r="1.58"/><path class="cls-4" d="M213.09,104.34a1.58,1.58,0,1,1-1.58-1.58A1.58,1.58,0,0,1,213.09,104.34Z"/><path class="cls-3" d="M84,80.13a1.29,1.29,0,1,1-1.29-1.28A1.28,1.28,0,0,1,84,80.13Z"/><path class="cls-1" d="M146.31,73.43H136A1.71,1.71,0,1,1,136,70h10.3a1.71,1.71,0,1,1,0,3.41Z"/><path class="cls-1" d="M130.19,73.43h-2.68a1.71,1.71,0,0,1,0-3.41h2.68a1.71,1.71,0,0,1,0,3.41Z"/><path class="cls-3" d="M129.64,9.27h-.56V8.7a.73.73,0,0,0-1.46,0v.57h-.57a.73.73,0,0,0,0,1.46h.57v.56a.73.73,0,1,0,1.46,0v-.56h.56a.73.73,0,0,0,0-1.46Z"/><path class="cls-3" d="M91.86,89.05h-.57v-.56a.73.73,0,1,0-1.45,0v.56h-.57a.73.73,0,0,0,0,1.46h.57v.56a.73.73,0,1,0,1.45,0v-.56h.57a.73.73,0,0,0,0-1.46Z"/><path class="cls-3" d="M157.67,88.8h-.47v-.47a.61.61,0,0,0-.61-.61.61.61,0,0,0-.62.61v.47h-.47a.61.61,0,0,0-.61.61.61.61,0,0,0,.61.62H156v.47a.62.62,0,0,0,.62.61.61.61,0,0,0,.61-.61V90h.47a.61.61,0,0,0,.61-.62A.61.61,0,0,0,157.67,88.8Z"/><path class="cls-3" d="M57.55,119.31H57v-.56a.73.73,0,1,0-1.46,0v.56H55a.73.73,0,1,0,0,1.46h.56v.56a.73.73,0,0,0,1.46,0v-.56h.57a.73.73,0,0,0,0-1.46Z"/><path class="cls-3" d="M181.39,142h-.56v-.57a.73.73,0,1,0-1.46,0V142h-.57a.73.73,0,1,0,0,1.45h.57v.57a.73.73,0,0,0,1.46,0v-.57h.56a.73.73,0,1,0,0-1.45Z"/><path class="cls-3" d="M30.19,29.58h-.56V29a.73.73,0,0,0-1.46,0v.56h-.56a.73.73,0,1,0,0,1.46h.56v.56a.73.73,0,0,0,1.46,0V31h.56a.73.73,0,0,0,0-1.46Z"/><path class="cls-1" d="M219.48,76.85h-.4v-.4a.52.52,0,0,0-1,0v.4h-.4a.52.52,0,0,0,0,1h.4v.4a.52.52,0,0,0,1,0v-.4h.4a.52.52,0,0,0,0-1Z"/><path class="cls-4" d="M62,1.52h-.39V1.13a.5.5,0,0,0-1,0v.39h-.39a.5.5,0,0,0,0,1h.39v.39a.5.5,0,0,0,1,0V2.52H62a.5.5,0,0,0,0-1Z"/><path class="cls-1" d="M29.13,144.94h-.38v-.39a.49.49,0,0,0-.5-.49.5.5,0,0,0-.5.49v.39h-.38a.5.5,0,0,0,0,1h.38v.38a.5.5,0,0,0,.5.5.5.5,0,0,0,.5-.5v-.38h.38a.5.5,0,1,0,0-1Z"/><path class="cls-4" d="M198,53H187.4a1.7,1.7,0,0,1,0-3.4H198a1.7,1.7,0,0,1,0,3.4Z"/><path class="cls-4" d="M208.94,50.81h-.56v-.57a.73.73,0,1,0-1.46,0v.57h-.56a.73.73,0,0,0,0,1.46h.56v.56a.73.73,0,1,0,1.46,0v-.56h.56a.73.73,0,0,0,0-1.46Z"/><path class="cls-3" d="M28.17,79.57h-.56V79a.73.73,0,0,0-1.46,0v.57h-.57a.73.73,0,0,0,0,1.46h.57v.56a.73.73,0,0,0,1.46,0V81h.56a.73.73,0,1,0,0-1.46Z"/><path class="cls-1" d="M211,1.29h-.56V.73a.73.73,0,0,0-1.46,0v.56h-.56a.73.73,0,1,0,0,1.46h.56v.56a.73.73,0,0,0,1.46,0V2.75H211a.73.73,0,0,0,0-1.46Z"/><path class="cls-1" d="M97,23h-.57v-.56a.73.73,0,1,0-1.45,0V23h-.57a.73.73,0,0,0,0,1.46h.57V25a.73.73,0,1,0,1.45,0v-.57H97A.73.73,0,1,0,97,23Z"/><path class="cls-2" d="M23.85,33H1.7a1.7,1.7,0,0,1,0-3.4H23.85a1.7,1.7,0,0,1,0,3.4Z"/><path class="cls-4" d="M51.23,82.23H33.28a1.46,1.46,0,1,1,0-2.91H51.23a1.46,1.46,0,1,1,0,2.91Z"/><path class="cls-3" d="M31.4,47.76H26.06a1.22,1.22,0,0,1,0-2.44H31.4a1.22,1.22,0,0,1,0,2.44Z"/><path class="cls-3" d="M52.39,47.76H37.76a1.22,1.22,0,0,1,0-2.44H52.39a1.22,1.22,0,0,1,0,2.44Z"/><path class="cls-2" d="M17.64,60.07H5.69a1.71,1.71,0,0,1,0-3.41h12a1.71,1.71,0,0,1,0,3.41Z"/><rect class="cls-5" x="65.14" y="23.09" width="101.28" height="90.11"/><path class="cls-6" d="M159.08,116.17H73a8.8,8.8,0,0,1-8.79-8.79v-77A8.8,8.8,0,0,1,73,21.6h86.12a8.8,8.8,0,0,1,8.79,8.79v77A8.8,8.8,0,0,1,159.08,116.17ZM73,24.93a5.47,5.47,0,0,0-5.46,5.46v77A5.48,5.48,0,0,0,73,112.85h86.12a5.48,5.48,0,0,0,5.46-5.47v-77a5.47,5.47,0,0,0-5.46-5.46Z"/><rect class="cls-6" x="65.26" y="42.41" width="100.94" height="3.33"/><circle class="cls-6" cx="75.67" cy="34.52" r="2.71"/><circle class="cls-6" cx="85.37" cy="34.52" r="2.71"/><circle class="cls-6" cx="95.06" cy="34.52" r="2.71"/><path class="cls-6" d="M108.18,70.22a2.45,2.45,0,0,0-2.48,2.48,2.48,2.48,0,1,0,5,0A2.45,2.45,0,0,0,108.18,70.22Z"/><path class="cls-6" d="M126,70.22a2.45,2.45,0,0,0-2.48,2.48,2.48,2.48,0,1,0,5,0A2.45,2.45,0,0,0,126,70.22Z"/><path class="cls-7" d="M108.42,88.1a8.45,8.45,0,0,0,8,5.36,8.31,8.31,0,0,0,8-5.36Z"/><path class="cls-6" d="M116.46,94.84a9.86,9.86,0,0,1-9.35-6.29l-.62-1.83h19.84l-.6,1.81A9.69,9.69,0,0,1,116.46,94.84Zm-5.66-5.36a7,7,0,0,0,5.66,2.6,6.87,6.87,0,0,0,5.61-2.6Z"/><path class="cls-6" d="M129.6,67.2a1,1,0,0,1-.92-.55,2.87,2.87,0,0,0-5.07,0,1,1,0,0,1-1.82-1,4.95,4.95,0,0,1,8.72,0,1,1,0,0,1-.43,1.4A.94.94,0,0,1,129.6,67.2Z"/><path class="cls-6" d="M111.67,67.2a1,1,0,0,1-.91-.55,2.87,2.87,0,0,0-5.07,0,1,1,0,1,1-1.82-1,4.94,4.94,0,0,1,8.71,0,1,1,0,0,1-.42,1.4A1,1,0,0,1,111.67,67.2Z"/><circle class="cls-8" cx="166.77" cy="36.15" r="16.01"/><path class="cls-3" d="M168.78,36.26l3.95-3.95A1.24,1.24,0,0,0,171,30.56L167,34.51l-3.95-3.95a1.24,1.24,0,0,0-1.75,1.75l3.94,3.95-3.94,4A1.24,1.24,0,0,0,163.08,42L167,38,171,42a1.24,1.24,0,0,0,1.76-1.75Z"/></g></g></svg>