<svg xmlns="http://www.w3.org/2000/svg" xmlns:xlink="http://www.w3.org/1999/xlink" width="157.231" height="122.72" viewBox="0 0 157.231 122.72"><defs><style>.a{fill:#e3feab;}.b{clip-path:url(#a);}.c,.e{stroke:#dde6d4;}.c{fill:url(#b);}.d,.e,.g,.l{fill:none;}.f{opacity:0.44;fill:url(#c);}.g{stroke:#dbff8f;stroke-width:2px;}.h{fill:#d4e8dc;}.i{fill:#80bd01;}.j{fill:#fff;}.k,.m{stroke:none;}.m{fill:#dde6d4;}.n{filter:url(#d);}</style><clipPath id="a"><path class="a" d="M7056.6-5686.036a51.737,51.737,0,0,1-39.848-61.361q.224-1.055.489-2.089c-1.128-.875-1.969-1.61-1.969-1.857,0-.751-2.75-7.75-1.75-8.252s8.75-11,10.5-11c.213,0,1.914-.186,4.741-.511a51.712,51.712,0,0,1,49.35-16.138,51.579,51.579,0,0,1,18.612,8c17.865-2.147,32.152-3.848,32.8-3.848,1.75,0,19,23,20,26.5s4.5,30,5,34.25,2.5,15,0,16.5-10.5,6.75-13.25,6.75c-1.858,0-25.643,1.37-40.866,2.258a51.734,51.734,0,0,1-33,11.941A51.96,51.96,0,0,1,7056.6-5686.036Z" transform="translate(-6838.525 10052.594)"/></clipPath><linearGradient id="b" x1="0.527" y1="0.716" x2="0.5" y2="1" gradientUnits="objectBoundingBox"><stop offset="0" stop-color="#fff"/><stop offset="1" stop-color="#dde6d4"/></linearGradient><radialGradient id="c" cx="0.5" cy="0.5" r="0.5" gradientUnits="objectBoundingBox"><stop offset="0" stop-color="#80bd01"/><stop offset="0.615" stop-color="#80bd01" stop-opacity="0.208"/><stop offset="1" stop-color="#80bd01" stop-opacity="0"/></radialGradient><filter id="d" x="96" y="53.406" width="51" height="51" filterUnits="userSpaceOnUse"><feOffset dy="3" input="SourceAlpha"/><feGaussianBlur stdDeviation="3" result="e"/><feFlood flood-color="#80bd01" flood-opacity="0.259"/><feComposite operator="in" in2="e"/><feComposite in="SourceGraphic"/></filter></defs><g transform="translate(0 0)"><circle class="a" cx="51.734" cy="51.734" r="51.734" transform="matrix(0.978, 0.208, -0.208, 0.978, 28.986, 0)"/><g class="b" transform="translate(-160 -4254.594)"><g transform="matrix(0.966, -0.259, 0.259, 0.966, -1229.078, 228.718)"><g transform="translate(307 4295.877)"><g class="c" transform="translate(0 0)"><rect class="k" width="105.045" height="70.928" rx="9"/><rect class="l" x="0.5" y="0.5" width="104.045" height="69.928" rx="8.5"/></g><g class="d" transform="translate(5.898 0.11)"><path class="k" d="M41.22,39.534.207.476A8.991,8.991,0,0,1,3.1,0h87.27a8.991,8.991,0,0,1,2.9.476L52.255,39.534a8,8,0,0,1-11.035,0Z"/><path class="m" d="M 46.73744964599609 40.74155044555664 C 48.54313659667969 40.74155044555664 50.25766372680664 40.05564880371094 51.56525039672852 38.81015014648438 L 91.22054290771484 1.044317364692688 C 90.94004821777344 1.01481306552887 90.65717315673828 1.000000238418579 90.37261199951172 1.000000238418579 L 3.102299690246582 1.000000238418579 C 2.817726135253906 1.000000238418579 2.534854888916016 1.014811992645264 2.254355192184448 1.044316291809082 L 41.90971374511719 38.81021118164063 C 43.21723556518555 40.05564880371094 44.9317626953125 40.74155044555664 46.73744964599609 40.74155044555664 M 46.73744964599609 41.74155044555664 C 44.75114822387695 41.74155044555664 42.76485061645508 41.00579833984375 41.22000122070313 39.5343017578125 L 0.2072871476411819 0.4757252335548401 C 1.115737199783325 0.1673377156257629 2.089599609375 2.227783113539772e-07 3.102299690246582 2.227783113539772e-07 L 90.37261199951172 2.227783113539772e-07 C 91.38531494140625 2.227783113539772e-07 92.35917663574219 0.1673502177000046 93.26760864257813 0.4757252335548401 L 52.25489807128906 39.5343017578125 C 50.71004867553711 41.00579833984375 48.72375106811523 41.74155044555664 46.73744964599609 41.74155044555664 Z"/></g><line class="e" x1="38.532" y2="34.806" transform="translate(3.349 33.729)"/><line class="e" x2="36.976" y2="35.874" transform="translate(64.944 32.662)"/></g></g></g><ellipse class="f" cx="63" cy="10" rx="63" ry="10" transform="translate(3 101.406)"/><g class="g" transform="translate(16 8.406)"><circle class="k" cx="3.5" cy="3.5" r="3.5"/><circle class="l" cx="3.5" cy="3.5" r="2.5"/></g><g class="g" transform="translate(0 45.406)"><circle class="k" cx="3.5" cy="3.5" r="3.5"/><circle class="l" cx="3.5" cy="3.5" r="2.5"/></g><path class="h" d="M5.084,0l5.084,8.807H0Z" transform="translate(99.871 15.425) rotate(-80)"/><path class="h" d="M4.084,0,8.169,6.807H0Z" transform="matrix(-0.829, 0.559, -0.559, -0.829, 18.5, 96.097)"/><g class="n" transform="matrix(1, 0, 0, 1, 0, 0)"><circle class="i" cx="16.5" cy="16.5" r="16.5" transform="translate(105 59.41)"/></g><g transform="translate(123.435 64.981) rotate(38)"><rect class="j" width="3.058" height="14.269" transform="translate(6.115)"/><rect class="j" width="3.058" height="9.173" transform="translate(9.173 11.721) rotate(90)"/></g></g></svg>