<svg xmlns="http://www.w3.org/2000/svg" xmlns:xlink="http://www.w3.org/1999/xlink" width="156" height="156" viewBox="0 0 156 156"><defs><style>.a{fill:#d4e8dc;}.b{fill:#15c9de;stroke:#fff;stroke-width:4px;}.c{clip-path:url(#a);}.d{fill:#f6f6f6;}.e{stroke:none;}.f{fill:none;}</style><clipPath id="a"><circle class="a" cx="78" cy="78" r="78"/></clipPath></defs><g class="b"><circle class="e" cx="78" cy="78" r="78"/><circle class="f" cx="78" cy="78" r="76"/></g><g class="c"><path class="d" d="M178.752-11.188s-4.242,5.739-5.574,6.821S141.533,6.308,136.72,12.771C130.735,20.8,128.28,38.621,127,53.96H262.449c-1.284-15.339-3.74-33.157-9.725-41.189C247.911,6.308,217.6-3.286,216.266-4.367s-5.573-6.821-5.573-6.821H210.4v-6.287a35.59,35.59,0,0,0,4.129-6.48,29.64,29.64,0,0,0,1.565-7.324c4.994-2.292,5.6-10.277,5.809-14.752.093-1.98-.756-2.328-1.785-2.056a96.062,96.062,0,0,0,3.1-13.09c2.042-12.381-15.482-15.562-15.482-15.562-28.421-19.689-40.952,9.247-40.044,7.557s3.45-2.685,3.45-2.685c-2.452,2.286-5.675,12.032-5,13.375.376.742,2.166,5.99,3.693,10.541-1.2-.473-2.3-.316-2.193,1.921.21,4.478.814,12.467,5.815,14.755a29.588,29.588,0,0,0,1.567,7.322,35.558,35.558,0,0,0,4.012,6.332v6.435Z" transform="translate(-114.725 102.04)"/></g></svg>